<svg width="68" height="68" viewBox="0 0 68 68" fill="none" xmlns="http://www.w3.org/2000/svg">
<path d="M11.6875 43.5625H22.3125C24.0699 43.5625 25.5 42.1324 25.5 40.375C25.5 38.6176 24.0699 37.1875 22.3125 37.1875H11.6875C9.93012 37.1875 8.5 38.6176 8.5 40.375C8.5 42.1324 9.93012 43.5625 11.6875 43.5625ZM11.6875 39.3125H22.3125C22.899 39.3125 23.375 39.7885 23.375 40.375C23.375 40.9615 22.899 41.4375 22.3125 41.4375H11.6875C11.101 41.4375 10.625 40.9615 10.625 40.375C10.625 39.7885 11.101 39.3125 11.6875 39.3125Z" fill="url(#paint0_radial)"/>
<path d="M63.75 24.4375C65.5074 24.4375 66.9375 23.0074 66.9375 21.25V4.25C66.9375 2.49262 65.5074 1.0625 63.75 1.0625H56.3125C55.3138 1.0625 54.3607 1.53956 53.7636 2.3375L51.5312 5.3125H42.5C40.7426 5.3125 39.3125 6.74262 39.3125 8.5V12.75H29.6958C29.1529 6.21669 23.6725 1.0625 17 1.0625C9.96944 1.0625 4.25 6.78194 4.25 13.8125C4.25 20.4839 9.40312 25.9654 15.9375 26.5083V32.9609C7.38863 33.201 1.0625 36.3035 1.0625 40.375V60.5625C1.0625 64.7031 9.27456 66.9375 17 66.9375C24.7254 66.9375 32.9375 64.7031 32.9375 60.5625V54.1875H39.3667C39.9128 61.3073 45.8681 66.9375 53.125 66.9375C60.741 66.9375 66.9375 60.741 66.9375 53.125C66.9375 45.8681 61.3073 39.9128 54.1875 39.3667V24.4375H63.75ZM63.75 22.3125H42.5C41.9135 22.3125 41.4375 21.8354 41.4375 21.25V11.6875H64.8125V21.25C64.8125 21.8354 64.3365 22.3125 63.75 22.3125ZM42.5 7.4375H52.5938L55.4636 3.61144C55.6623 3.34581 55.9799 3.1875 56.3125 3.1875H63.75C64.3365 3.1875 64.8125 3.66456 64.8125 4.25V9.5625H41.4375V8.5C41.4375 7.91456 41.9135 7.4375 42.5 7.4375ZM6.375 13.8125C6.375 12.7022 6.54819 11.6322 6.86481 10.625H10.9459C10.7493 11.6174 10.625 12.6756 10.625 13.8125C10.625 14.9494 10.7493 16.0076 10.9469 17H6.86481C6.54819 15.9928 6.375 14.9228 6.375 13.8125ZM12.75 13.8125C12.75 12.6661 12.8966 11.6068 13.1261 10.625H20.8781C21.1055 11.6057 21.25 12.665 21.25 13.8125C21.25 14.9589 21.1034 16.0182 20.8739 17H13.1219C12.8945 16.0193 12.75 14.96 12.75 13.8125ZM17.0021 3.58169C17.8277 4.42106 19.2376 6.09662 20.2087 8.5H13.7976C14.7709 6.103 16.1798 4.42425 17.0021 3.58169ZM20.2024 19.125C19.2291 21.5231 17.8202 23.2018 16.9979 24.0433C16.1723 23.2039 14.7624 21.5284 13.7912 19.125H20.2024ZM22.4899 19.125H26.1874C24.8041 21.5071 22.5271 23.2996 19.8146 24.0476C20.7442 22.8491 21.7759 21.2022 22.4899 19.125ZM27.625 13.8125C27.625 14.9228 27.4529 15.9928 27.1352 17H23.0541C23.2507 16.0076 23.375 14.9494 23.375 13.8125C23.375 12.6756 23.2507 11.6174 23.0531 10.625H27.1341C27.4529 11.6322 27.625 12.7022 27.625 13.8125ZM26.1874 8.5H22.4899C21.7759 6.42281 20.7442 4.77594 19.8146 3.57744C22.5271 4.32544 24.8041 6.11788 26.1874 8.5ZM14.1854 3.57744C13.2557 4.77594 12.2241 6.42281 11.5101 8.5H7.81256C9.19594 6.11788 11.4729 4.32544 14.1854 3.57744ZM7.81256 19.125H11.5101C12.2241 21.2022 13.2557 22.8491 14.1854 24.0476C11.4729 23.2996 9.19594 21.5071 7.81256 19.125ZM17 35.0625C25.1398 35.0625 30.8125 37.8622 30.8125 40.375C30.8125 42.8878 25.1398 45.6875 17 45.6875C8.86019 45.6875 3.1875 42.8878 3.1875 40.375C3.1875 37.8622 8.86019 35.0625 17 35.0625ZM3.1875 44.1819C5.8905 46.3856 10.9416 47.8125 17 47.8125C23.0584 47.8125 28.1095 46.3856 30.8125 44.1819V47.8125C30.8125 49.5454 25.432 52.0625 17 52.0625C8.568 52.0625 3.1875 49.5454 3.1875 47.8125V44.1819ZM3.1875 51.1137C6.12744 53.1271 11.6779 54.1875 17 54.1875C22.3221 54.1875 27.8726 53.1271 30.8125 51.1137V54.1875C30.8125 55.9204 25.432 58.4375 17 58.4375C8.568 58.4375 3.1875 55.9204 3.1875 54.1875V51.1137ZM17 64.8125C8.568 64.8125 3.1875 62.2954 3.1875 60.5625V57.4887C6.12744 59.5021 11.6779 60.5625 17 60.5625C22.3221 60.5625 27.8726 59.5021 30.8125 57.4887V60.5625C30.8125 62.2954 25.432 64.8125 17 64.8125ZM44.9969 61.506C45.9691 58.4279 48.7836 56.3125 52.0625 56.3125H54.1875C57.4685 56.3125 60.2831 58.4279 61.2531 61.506C59.1473 63.5481 56.2827 64.8125 53.125 64.8125C49.9673 64.8125 47.1027 63.5481 44.9969 61.506ZM53.125 54.1875C50.7811 54.1875 48.875 52.2814 48.875 49.9375C48.875 47.5936 50.7811 45.6875 53.125 45.6875C55.4689 45.6875 57.375 47.5936 57.375 49.9375C57.375 52.2814 55.4689 54.1875 53.125 54.1875ZM64.8125 53.125C64.8125 55.5369 64.0772 57.7798 62.8214 59.6434C61.7217 57.3123 59.7401 55.5443 57.3336 54.7145C58.6585 53.5447 59.5 51.8394 59.5 49.9375C59.5 46.4217 56.6408 43.5625 53.125 43.5625C49.6092 43.5625 46.75 46.4217 46.75 49.9375C46.75 51.8394 47.5915 53.5447 48.9175 54.7145C46.5109 55.5454 44.5304 57.3134 43.4297 59.6434C42.1727 57.7798 41.4375 55.5369 41.4375 53.125C41.4375 46.6809 46.6809 41.4375 53.125 41.4375C59.5691 41.4375 64.8125 46.6809 64.8125 53.125ZM52.0625 39.3667C45.2944 39.8852 39.8852 45.2944 39.3667 52.0625H32.9375V40.375C32.9375 36.3035 26.6114 33.201 18.0625 32.9609V26.5083C24.2452 25.9941 29.1826 21.0577 29.6958 14.875H39.3125V21.25C39.3125 23.0074 40.7426 24.4375 42.5 24.4375H52.0625V39.3667Z" fill="url(#paint1_radial)"/>
<path d="M60.5625 5.3125H62.6875V7.4375H60.5625V5.3125Z" fill="url(#paint2_radial)"/>
<path d="M56.3125 5.3125H58.4375V7.4375H56.3125V5.3125Z" fill="url(#paint3_radial)"/>
<path d="M43.5625 18.0625H45.6875V20.1875H43.5625V18.0625Z" fill="url(#paint4_radial)"/>
<path d="M47.8125 18.0625H49.9375V20.1875H47.8125V18.0625Z" fill="url(#paint5_radial)"/>
<path d="M52.0625 18.0625H54.1875V20.1875H52.0625V18.0625Z" fill="url(#paint6_radial)"/>
<path d="M18.0625 12.75H20.1875V14.875H18.0625V12.75Z" fill="url(#paint7_radial)"/>
<path d="M13.8125 12.75H15.9375V14.875H13.8125V12.75Z" fill="url(#paint8_radial)"/>
<defs>
<radialGradient id="paint0_radial" cx="0" cy="0" r="1" gradientUnits="userSpaceOnUse" gradientTransform="translate(28.2315 50.9275) rotate(-147.067) scale(27.4865 44.7882)">
<stop stop-color="#3E3CCC"/>
<stop offset="1" stop-color="#912121"/>
</radialGradient>
<radialGradient id="paint1_radial" cx="0" cy="0" r="1" gradientUnits="userSpaceOnUse" gradientTransform="translate(77.522 143.043) rotate(-120.068) scale(178.424 276.274)">
<stop stop-color="#3E3CCC"/>
<stop offset="1" stop-color="#912121"/>
</radialGradient>
<radialGradient id="paint2_radial" cx="0" cy="0" r="1" gradientUnits="userSpaceOnUse" gradientTransform="translate(63.0289 9.8925) rotate(-120.068) scale(5.75562 8.91208)">
<stop stop-color="#3E3CCC"/>
<stop offset="1" stop-color="#912121"/>
</radialGradient>
<radialGradient id="paint3_radial" cx="0" cy="0" r="1" gradientUnits="userSpaceOnUse" gradientTransform="translate(58.7789 9.8925) rotate(-120.068) scale(5.75562 8.91208)">
<stop stop-color="#3E3CCC"/>
<stop offset="1" stop-color="#912121"/>
</radialGradient>
<radialGradient id="paint4_radial" cx="0" cy="0" r="1" gradientUnits="userSpaceOnUse" gradientTransform="translate(46.0289 22.6425) rotate(-120.068) scale(5.75562 8.91208)">
<stop stop-color="#3E3CCC"/>
<stop offset="1" stop-color="#912121"/>
</radialGradient>
<radialGradient id="paint5_radial" cx="0" cy="0" r="1" gradientUnits="userSpaceOnUse" gradientTransform="translate(50.2789 22.6425) rotate(-120.068) scale(5.75562 8.91208)">
<stop stop-color="#3E3CCC"/>
<stop offset="1" stop-color="#912121"/>
</radialGradient>
<radialGradient id="paint6_radial" cx="0" cy="0" r="1" gradientUnits="userSpaceOnUse" gradientTransform="translate(54.5289 22.6425) rotate(-120.068) scale(5.75562 8.91208)">
<stop stop-color="#3E3CCC"/>
<stop offset="1" stop-color="#912121"/>
</radialGradient>
<radialGradient id="paint7_radial" cx="0" cy="0" r="1" gradientUnits="userSpaceOnUse" gradientTransform="translate(20.5289 17.33) rotate(-120.068) scale(5.75562 8.91208)">
<stop stop-color="#3E3CCC"/>
<stop offset="1" stop-color="#912121"/>
</radialGradient>
<radialGradient id="paint8_radial" cx="0" cy="0" r="1" gradientUnits="userSpaceOnUse" gradientTransform="translate(16.2789 17.33) rotate(-120.068) scale(5.75562 8.91208)">
<stop stop-color="#3E3CCC"/>
<stop offset="1" stop-color="#912121"/>
</radialGradient>
</defs>
</svg>
