<svg width="23" height="22" viewBox="0 0 23 22" fill="none" xmlns="http://www.w3.org/2000/svg">
<g clip-path="url(#clip0)">
<path d="M17.9984 22C17.083 22 15.9775 21.7706 14.7618 21.3118C12.0964 20.3069 9.19646 18.3208 6.59621 15.7206C3.99522 13.1196 2.00915 10.2189 1.00353 7.55357C0.0896679 5.13017 0.087448 3.14114 0.998349 2.23097C1.12932 2.1 1.26252 1.95941 1.40015 1.81437C2.23114 0.94047 3.17016 -0.042948 4.41478 0.00145005C5.27241 0.0369685 6.10339 0.569746 6.95436 1.62864C9.46877 4.75575 8.33514 5.87014 7.02317 7.16212L6.79156 7.39151C6.57697 7.60611 6.17147 8.59988 9.94383 12.3722C11.1751 13.6035 12.2251 14.5048 13.0643 15.0502C13.5926 15.3935 14.5376 15.913 14.9253 15.5252L15.1584 15.2899C16.4489 13.9809 17.5633 12.851 20.6882 15.3632C21.7471 16.2142 22.2791 17.0444 22.3146 17.9035C22.3657 19.1474 21.3749 20.0886 20.5002 20.9189C20.3559 21.0565 20.2153 21.1897 20.0844 21.3199C19.6322 21.7728 18.9093 22 17.9984 22ZM4.32599 0.739938C3.44172 0.739938 2.6433 1.58054 1.93663 2.32421C1.79456 2.47368 1.65692 2.61872 1.52151 2.75413C0.842956 3.43194 0.911773 5.21305 1.69614 7.2931C2.6655 9.86227 4.59164 12.6697 7.12011 15.1982C9.64784 17.7252 12.4538 19.6513 15.0237 20.6199C17.1038 21.4058 18.8849 21.4724 19.5619 20.7953C19.6974 20.6599 19.8424 20.5223 19.9919 20.3809C20.7518 19.6587 21.6139 18.8403 21.5761 17.9324C21.5502 17.3086 21.0959 16.6374 20.2257 15.9381C17.6217 13.844 16.8936 14.5833 15.686 15.8079L15.4492 16.0469C14.872 16.6248 13.9345 16.4968 12.6617 15.6695C11.7789 15.0953 10.6882 14.1615 9.42141 12.8939C6.2906 9.76385 5.28943 7.84807 6.26914 6.86614L6.50519 6.63305C7.7328 5.42542 8.47351 4.69655 6.37866 2.09112C5.67791 1.22166 5.0075 0.767317 4.3837 0.740678C4.36447 0.739938 4.34523 0.739938 4.32599 0.739938Z" fill="black"/>
</g>
<defs>
<clipPath id="clip0">
<rect width="22" height="22" fill="white" transform="translate(0.316895)"/>
</clipPath>
</defs>
</svg>
