<svg width="24" height="24" viewBox="0 0 24 24" fill="none" xmlns="http://www.w3.org/2000/svg">
<path d="M18.6815 23C17.7661 23 16.6606 22.7706 15.4449 22.3118C12.7795 21.3069 9.87956 19.3208 7.27932 16.7206C4.67833 14.1196 2.69225 11.2189 1.68663 8.55357C0.772773 6.13017 0.770553 4.14114 1.68145 3.23097C1.81243 3.1 1.94562 2.95941 2.08326 2.81437C2.91424 1.94047 3.85326 0.957052 5.09789 1.00145C5.95551 1.03697 6.7865 1.56975 7.63746 2.62864C10.1519 5.75575 9.01824 6.87014 7.70628 8.16212L7.47467 8.39151C7.26008 8.60611 6.85457 9.59988 10.6269 13.3722C11.8582 14.6035 12.9083 15.5048 13.7474 16.0502C14.2757 16.3935 15.2207 16.913 15.6084 16.5252L15.8415 16.2899C17.132 14.9809 18.2464 13.851 21.3713 16.3632C22.4302 17.2142 22.9622 18.0444 22.9977 18.9035C23.0488 20.1474 22.058 21.0886 21.1833 21.9189C21.039 22.0565 20.8984 22.1897 20.7675 22.3199C20.3153 22.7728 19.5924 23 18.6815 23ZM5.00909 1.73994C4.12483 1.73994 3.3264 2.58054 2.61973 3.32421C2.47766 3.47368 2.34003 3.61872 2.20461 3.75413C1.52606 4.43194 1.59488 6.21305 2.37924 8.2931C3.3486 10.8623 5.27474 13.6697 7.80321 16.1982C10.3309 18.7252 13.1369 20.6513 15.7068 21.6199C17.7869 22.4058 19.568 22.4724 20.245 21.7953C20.3805 21.6599 20.5255 21.5223 20.675 21.3809C21.4349 20.6587 22.297 19.8403 22.2592 18.9324C22.2333 18.3086 21.779 17.6374 20.9088 16.9381C18.3048 14.844 17.5767 15.5833 16.3691 16.8079L16.1323 17.0469C15.5551 17.6248 14.6176 17.4968 13.3448 16.6695C12.4621 16.0953 11.3713 15.1615 10.1045 13.8939C6.97371 10.7639 5.97253 8.84807 6.95225 7.86614L7.1883 7.63305C8.41591 6.42542 9.15662 5.69655 7.06177 3.09112C6.36101 2.22166 5.6906 1.76732 5.06681 1.74068C5.04757 1.73994 5.02833 1.73994 5.00909 1.73994Z" fill="white" stroke="white" stroke-width="0.5"/>
</svg>
