<svg width="18" height="18" viewBox="0 0 18 18" fill="none" xmlns="http://www.w3.org/2000/svg">
<g clip-path="url(#clip0)">
<path d="M7.97091 0.0577494C3.91121 0.510632 0.614011 3.7339 0.0800933 7.78369C-0.676399 13.5226 4.01541 18.405 9.69846 17.9737C11.789 17.815 13.7458 16.8808 15.279 15.4509L15.4107 15.3281C15.5622 15.1869 15.5705 14.9496 15.4292 14.7981L14.9175 14.2494C14.7763 14.098 14.539 14.0897 14.3875 14.231L14.1132 14.4868C12.4077 16.077 10.0665 16.7924 7.70475 16.3902C4.35734 15.8201 1.78405 12.9782 1.52266 9.59265C1.17704 5.11575 4.78829 1.3746 9.22209 1.50344C13.3103 1.62231 16.4998 5.11104 16.4998 9.20101V9.75022C16.4998 10.6268 15.7444 11.3299 14.8502 11.243C14.0709 11.1672 13.4998 10.4667 13.4998 9.68374V6.37526C13.4998 6.16812 13.3319 6.00025 13.1248 6.00025H12.3748C12.2242 6.00025 12.0963 6.09025 12.0366 6.21832C11.282 5.39521 10.2018 4.87525 8.99976 4.87525C6.72522 4.87525 4.87477 6.7257 4.87477 9.00023C4.87477 11.2748 6.72522 13.1253 8.99976 13.1253C10.4326 13.1253 11.6959 12.3902 12.4357 11.2781C12.9926 12.2089 14.0274 12.8223 15.2053 12.7434C16.7979 12.6367 17.9998 11.2406 17.9998 9.64433V9.00023C17.9998 3.69874 13.3919 -0.547008 7.97091 0.0577494ZM8.99976 11.6252C7.55248 11.6252 6.37475 10.4475 6.37475 9.00023C6.37475 7.55296 7.55248 6.37522 8.99976 6.37522C10.447 6.37522 11.6248 7.55296 11.6248 9.00023C11.6248 10.4475 10.447 11.6252 8.99976 11.6252Z" fill="white"/>
</g>
<defs>
<clipPath id="clip0">
<rect width="18" height="18" fill="white"/>
</clipPath>
</defs>
</svg>
