<svg width="74" height="74" viewBox="0 0 74 74" fill="none" xmlns="http://www.w3.org/2000/svg">
<path d="M69.375 45.0935H55.1682C53.7228 44.1662 52.0544 43.3418 50.1732 42.6538L49.3788 44.8264C55.3832 47.0198 58.9688 50.5776 58.9688 54.3435C58.9688 60.6104 48.9082 65.906 37 65.906C25.0918 65.906 15.0312 60.6104 15.0312 54.3435C15.0312 50.6146 18.5613 47.0776 24.4732 44.8807L23.6684 42.7128C21.852 43.388 20.2367 44.1916 18.8318 45.0935H4.625C2.71256 45.0935 1.15625 46.6498 1.15625 48.5622V69.3747C1.15625 71.2872 2.71256 72.8435 4.625 72.8435H69.375C71.2874 72.8435 72.8438 71.2872 72.8438 69.3747V48.5622C72.8438 46.6498 71.2874 45.0935 69.375 45.0935ZM61.2812 54.3435C61.2812 51.8518 60.1435 49.4745 58.0761 47.406H69.375C70.0121 47.406 70.5312 47.9251 70.5312 48.5622V65.906H50.5906C57.0806 63.4409 61.2812 59.2252 61.2812 54.3435ZM4.625 47.406H15.9285C13.8588 49.4757 12.7188 51.8541 12.7188 54.3435C12.7188 59.2252 16.9194 63.4409 23.4094 65.906H3.46875V48.5622C3.46875 47.9251 3.98791 47.406 4.625 47.406ZM69.375 70.531H4.625C3.98791 70.531 3.46875 70.0118 3.46875 69.3747V68.2185H70.5312V69.3747C70.5312 70.0118 70.0121 70.531 69.375 70.531Z" fill="url(#paint0_radial)"/>
<path d="M17.3438 54.3439C17.3438 58.7191 25.4155 63.5939 37 63.5939C48.5845 63.5939 56.6562 58.7191 56.6562 54.3439C56.6562 51.4845 53.1736 48.4875 47.7832 46.708L47.0582 48.9037C51.7908 50.4658 54.3438 52.8731 54.3438 54.3439C54.3438 56.7894 47.7589 61.2814 37 61.2814C26.2411 61.2814 19.6562 56.7894 19.6562 54.3439C19.6562 52.8812 22.1908 50.4843 26.8863 48.9234L26.1567 46.73C20.8032 48.5083 17.3438 51.4984 17.3438 54.3439Z" fill="url(#paint1_radial)"/>
<path d="M24.3801 36.2969L26.4984 35.3696L34.5957 53.8661L32.4774 54.7934L24.3801 36.2969Z" fill="url(#paint2_radial)"/>
<path d="M39.4084 53.8931L47.5057 35.3965L49.624 36.3238L41.5267 54.8204L39.4084 53.8931Z" fill="url(#paint3_radial)"/>
<path d="M35.8438 35.8438H38.1562V54.3438H35.8438V35.8438Z" fill="url(#paint4_radial)"/>
<path d="M37 33.5312C45.9263 33.5312 53.1875 26.27 53.1875 17.3438C53.1875 8.4175 45.9263 1.15625 37 1.15625C28.0738 1.15625 20.8125 8.4175 20.8125 17.3438C20.8125 26.27 28.0738 33.5312 37 33.5312ZM50.875 17.3438C50.875 18.1335 50.7929 18.9024 50.6657 19.6562H42.7812C42.1442 19.6562 41.625 19.1371 41.625 18.5C41.625 17.8629 42.1442 17.3438 42.7812 17.3438C44.6937 17.3438 46.25 15.7874 46.25 13.875C46.25 11.9626 44.6937 10.4062 42.7812 10.4062H39.3125C38.6754 10.4062 38.1562 9.88709 38.1562 9.25C38.1562 8.61291 38.6754 8.09375 39.3125 8.09375H47.3126C49.5187 10.5519 50.875 13.7883 50.875 17.3438ZM37 3.46875C39.827 3.46875 42.4575 4.32322 44.6532 5.78125H39.3125C37.4001 5.78125 35.8438 7.33756 35.8438 9.25C35.8438 11.1624 37.4001 12.7188 39.3125 12.7188H42.7812C43.4183 12.7188 43.9375 13.2379 43.9375 13.875C43.9375 14.5121 43.4183 15.0312 42.7812 15.0312C40.8688 15.0312 39.3125 16.5876 39.3125 18.5C39.3125 20.4124 40.8688 21.9688 42.7812 21.9688H50.0656C48.1543 27.3488 43.0275 31.2188 37 31.2188C34.173 31.2188 31.5425 30.3643 29.3468 28.9062H34.6875C36.5999 28.9062 38.1562 27.3499 38.1562 25.4375C38.1562 23.5251 36.5999 21.9688 34.6875 21.9688H30.0625C29.4254 21.9688 28.9062 21.4496 28.9062 20.8125C28.9062 20.1754 29.4254 19.6562 30.0625 19.6562H31.2188C33.1312 19.6562 34.6875 18.0999 34.6875 16.1875C34.6875 14.2751 33.1312 12.7188 31.2188 12.7188H23.9344C25.8457 7.33872 30.9725 3.46875 37 3.46875ZM23.3343 15.0312H31.2188C31.8558 15.0312 32.375 15.5504 32.375 16.1875C32.375 16.8246 31.8558 17.3438 31.2188 17.3438H30.0625C28.1501 17.3438 26.5938 18.9001 26.5938 20.8125C26.5938 22.7249 28.1501 24.2812 30.0625 24.2812H34.6875C35.3246 24.2812 35.8438 24.8004 35.8438 25.4375C35.8438 26.0746 35.3246 26.5938 34.6875 26.5938H26.6874C24.4813 24.1356 23.125 20.8992 23.125 17.3438C23.125 16.554 23.2071 15.7851 23.3343 15.0312Z" fill="url(#paint5_radial)"/>
<path d="M65.9062 61.2812H68.2188V63.5938H65.9062V61.2812Z" fill="url(#paint6_radial)"/>
<path d="M61.2812 61.2812H63.5938V63.5938H61.2812V61.2812Z" fill="url(#paint7_radial)"/>
<path d="M10.4062 61.2812H12.7188V63.5938H10.4062V61.2812Z" fill="url(#paint8_radial)"/>
<path d="M5.78125 61.2812H8.09375V63.5938H5.78125V61.2812Z" fill="url(#paint9_radial)"/>
<path d="M53.3469 28.2621L55.2686 29.549C55.7265 28.8645 56.1508 28.1477 56.5278 27.4169L54.4731 26.3555C54.1355 27.0088 53.7562 27.6505 53.3469 28.2621Z" fill="url(#paint10_radial)"/>
<path d="M53.1875 8.09375C53.5563 8.09375 53.9055 8.02091 54.2397 7.91337C55.8191 10.7948 56.6562 14.0172 56.6562 17.3438C56.6562 19.8054 56.2065 22.2069 55.3208 24.4801L57.4749 25.3207C58.4658 22.7781 58.9688 20.0945 58.9688 17.3438C58.9688 13.5073 57.9813 9.78766 56.1024 6.49003C56.4493 5.95006 56.6562 5.31297 56.6562 4.625C56.6562 2.71256 55.0999 1.15625 53.1875 1.15625C51.2751 1.15625 49.7188 2.71256 49.7188 4.625C49.7188 6.53744 51.2751 8.09375 53.1875 8.09375ZM53.1875 3.46875C53.8246 3.46875 54.3438 3.98791 54.3438 4.625C54.3438 5.26209 53.8246 5.78125 53.1875 5.78125C52.5504 5.78125 52.0312 5.26209 52.0312 4.625C52.0312 3.98791 52.5504 3.46875 53.1875 3.46875Z" fill="url(#paint11_radial)"/>
<path d="M20.653 6.42527L18.7313 5.13721C18.2734 5.82171 17.8491 6.53858 17.4722 7.26933L19.5268 8.33077C19.8644 7.67864 20.2437 7.03693 20.653 6.42527Z" fill="url(#paint12_radial)"/>
<path d="M17.3438 30.0624C17.3438 31.9749 18.9001 33.5312 20.8125 33.5312C22.7249 33.5312 24.2812 31.9749 24.2812 30.0624C24.2812 28.15 22.7249 26.5937 20.8125 26.5937C20.4437 26.5937 20.0945 26.6665 19.7603 26.774C18.1809 23.8927 17.3438 20.6702 17.3438 17.3437C17.3438 14.882 17.7935 12.4805 18.6792 10.2073L16.5251 9.3667C15.5342 11.9093 15.0312 14.5929 15.0312 17.3437C15.0312 21.1801 16.0187 24.8998 17.8976 28.1974C17.5507 28.7374 17.3438 29.3745 17.3438 30.0624ZM21.9688 30.0624C21.9688 30.6995 21.4496 31.2187 20.8125 31.2187C20.1754 31.2187 19.6562 30.6995 19.6562 30.0624C19.6562 29.4253 20.1754 28.9062 20.8125 28.9062C21.4496 28.9062 21.9688 29.4253 21.9688 30.0624Z" fill="url(#paint13_radial)"/>
<defs>
<radialGradient id="paint0_radial" cx="0" cy="0" r="1" gradientUnits="userSpaceOnUse" gradientTransform="translate(84.3622 107.721) rotate(-143.967) scale(120.298 204.36)">
<stop stop-color="#3E3CCC"/>
<stop offset="1" stop-color="#912121"/>
</radialGradient>
<radialGradient id="paint1_radial" cx="0" cy="0" r="1" gradientUnits="userSpaceOnUse" gradientTransform="translate(62.9728 83.1021) rotate(-143.427) scale(66.4284 113.515)">
<stop stop-color="#3E3CCC"/>
<stop offset="1" stop-color="#912121"/>
</radialGradient>
<radialGradient id="paint2_radial" cx="0" cy="0" r="1" gradientUnits="userSpaceOnUse" gradientTransform="translate(44.2908 75.0861) rotate(-117.436) scale(47.4334 11.1811)">
<stop stop-color="#3E3CCC"/>
<stop offset="1" stop-color="#912121"/>
</radialGradient>
<radialGradient id="paint3_radial" cx="0" cy="0" r="1" gradientUnits="userSpaceOnUse" gradientTransform="translate(53.3722 34.4232) rotate(124.832) scale(27.9312 18.988)">
<stop stop-color="#3E3CCC"/>
<stop offset="1" stop-color="#912121"/>
</radialGradient>
<radialGradient id="paint4_radial" cx="0" cy="0" r="1" gradientUnits="userSpaceOnUse" gradientTransform="translate(38.5278 75.7167) rotate(-94.139) scale(43.4784 11.1772)">
<stop stop-color="#3E3CCC"/>
<stop offset="1" stop-color="#912121"/>
</radialGradient>
<radialGradient id="paint5_radial" cx="0" cy="0" r="1" gradientUnits="userSpaceOnUse" gradientTransform="translate(58.3894 70.9339) rotate(-120.068) scale(87.6886 135.778)">
<stop stop-color="#3E3CCC"/>
<stop offset="1" stop-color="#912121"/>
</radialGradient>
<radialGradient id="paint6_radial" cx="0" cy="0" r="1" gradientUnits="userSpaceOnUse" gradientTransform="translate(68.5903 66.2654) rotate(-120.068) scale(6.26347 9.69844)">
<stop stop-color="#3E3CCC"/>
<stop offset="1" stop-color="#912121"/>
</radialGradient>
<radialGradient id="paint7_radial" cx="0" cy="0" r="1" gradientUnits="userSpaceOnUse" gradientTransform="translate(63.9653 66.2654) rotate(-120.068) scale(6.26347 9.69844)">
<stop stop-color="#3E3CCC"/>
<stop offset="1" stop-color="#912121"/>
</radialGradient>
<radialGradient id="paint8_radial" cx="0" cy="0" r="1" gradientUnits="userSpaceOnUse" gradientTransform="translate(13.0903 66.2654) rotate(-120.068) scale(6.26347 9.69844)">
<stop stop-color="#3E3CCC"/>
<stop offset="1" stop-color="#912121"/>
</radialGradient>
<radialGradient id="paint9_radial" cx="0" cy="0" r="1" gradientUnits="userSpaceOnUse" gradientTransform="translate(8.46531 66.2654) rotate(-120.068) scale(6.26347 9.69844)">
<stop stop-color="#3E3CCC"/>
<stop offset="1" stop-color="#912121"/>
</radialGradient>
<radialGradient id="paint10_radial" cx="0" cy="0" r="1" gradientUnits="userSpaceOnUse" gradientTransform="translate(57.0389 33.2385) rotate(-119.969) scale(8.64122 13.3535)">
<stop stop-color="#3E3CCC"/>
<stop offset="1" stop-color="#912121"/>
</radialGradient>
<radialGradient id="paint11_radial" cx="0" cy="0" r="1" gradientUnits="userSpaceOnUse" gradientTransform="translate(60.455 53.2378) rotate(-102.495) scale(58.017 43.764)">
<stop stop-color="#3E3CCC"/>
<stop offset="1" stop-color="#912121"/>
</radialGradient>
<radialGradient id="paint12_radial" cx="0" cy="0" r="1" gradientUnits="userSpaceOnUse" gradientTransform="translate(21.1641 12.0203) rotate(-119.969) scale(8.64122 13.3535)">
<stop stop-color="#3E3CCC"/>
<stop offset="1" stop-color="#912121"/>
</radialGradient>
<radialGradient id="paint13_radial" cx="0" cy="0" r="1" gradientUnits="userSpaceOnUse" gradientTransform="translate(25.7675 61.4483) rotate(-102.495) scale(58.0171 43.764)">
<stop stop-color="#3E3CCC"/>
<stop offset="1" stop-color="#912121"/>
</radialGradient>
</defs>
</svg>
