<svg width="24" height="17" viewBox="0 0 24 17" fill="none" xmlns="http://www.w3.org/2000/svg">
<path d="M18.8122 13.0797C18.725 13.0797 18.6377 13.0478 18.5696 12.9832L14.4877 9.15388C14.3451 9.02051 14.338 8.79563 14.4721 8.65304C14.6062 8.50903 14.8296 8.50265 14.9736 8.63743L19.0555 12.4668C19.1981 12.6002 19.2052 12.825 19.0712 12.9676C19.0009 13.0421 18.9073 13.0797 18.8122 13.0797Z" fill="white" stroke="white" stroke-width="0.5"/>
<path d="M5.18684 13.08C5.09249 13.08 4.99814 13.0424 4.92791 12.968C4.79383 12.8254 4.80093 12.6005 4.94352 12.4671L9.02684 8.63776C9.17014 8.50439 9.39502 8.51006 9.52839 8.65336C9.66246 8.79595 9.65537 9.02083 9.51278 9.1542L5.42946 12.9836C5.36135 13.0481 5.2741 13.08 5.18684 13.08Z" fill="white" stroke="white" stroke-width="0.5"/>
<path d="M21.2265 16.6402H2.77351C1.79595 16.6402 1 15.845 1 14.8667V2.77351C1 1.79524 1.79595 1 2.77351 1H21.2265C22.2041 1 23 1.79524 23 2.77351V14.8667C23 15.845 22.2041 16.6402 21.2265 16.6402ZM2.77351 1.7094C2.18683 1.7094 1.7094 2.18683 1.7094 2.77351V14.8667C1.7094 15.4534 2.18683 15.9308 2.77351 15.9308H21.2265C21.8132 15.9308 22.2906 15.4534 22.2906 14.8667V2.77351C22.2906 2.18683 21.8132 1.7094 21.2265 1.7094H2.77351Z" fill="white" stroke="white" stroke-width="0.5"/>
<path d="M12 10.6025C11.5282 10.6025 11.0565 10.4457 10.6975 10.1329L1.58877 2.18683C1.44121 2.05843 1.4256 1.83426 1.55401 1.686C1.68383 1.53844 1.90729 1.52496 2.05484 1.65194L11.1636 9.59726C11.6169 9.99239 12.383 9.99239 12.8356 9.59726L21.933 1.66471C22.0799 1.53631 22.3033 1.5505 22.4339 1.69876C22.5623 1.84703 22.5474 2.07049 22.3998 2.1996L13.3024 10.1321C12.9428 10.4457 12.4717 10.6025 12 10.6025Z" fill="white" stroke="white" stroke-width="0.5"/>
</svg>
