<svg width="70" height="70" viewBox="0 0 70 70" fill="none" xmlns="http://www.w3.org/2000/svg">
<g clip-path="url(#clip0)">
<path d="M35.0673 13.9236C38.9119 13.9236 42.0284 10.8071 42.0284 6.96254C42.0284 3.11794 38.9119 0.00146484 35.0673 0.00146484C31.2227 0.00146484 28.1062 3.11794 28.1062 6.96254C28.11 10.8049 31.2242 13.9191 35.0673 13.9236ZM35.0673 2.32182C37.6301 2.32182 39.708 4.39897 39.708 6.96254C39.708 9.52536 37.6301 11.6033 35.0673 11.6033C32.5037 11.6033 30.4266 9.52536 30.4266 6.96254C30.4296 4.40048 32.5052 2.32485 35.0673 2.32182Z" fill="url(#paint0_radial)"/>
<path d="M7.54555 13.9236C11.3902 13.9236 14.5066 10.8071 14.5066 6.96254C14.5066 3.11794 11.3902 0.00146484 7.54555 0.00146484C3.70094 0.00146484 0.584473 3.11794 0.584473 6.96254C0.588249 10.8049 3.70245 13.9191 7.54555 13.9236ZM7.54555 2.32182C10.1084 2.32182 12.1863 4.39897 12.1863 6.96254C12.1863 9.52536 10.1084 11.6033 7.54555 11.6033C4.98198 11.6033 2.90483 9.52536 2.90483 6.96254C2.90785 4.40048 4.98349 2.32485 7.54555 2.32182Z" fill="url(#paint1_radial)"/>
<path d="M69.5501 6.96255C69.5508 3.26825 66.6663 0.217494 62.978 0.0105348C59.2898 -0.195669 56.0826 2.51444 55.671 6.18532C55.2593 9.8562 57.7867 13.2091 61.4288 13.8247V28.1373C58.5103 28.6358 56.2246 30.9215 55.7261 33.84H41.9294C41.3644 30.4902 38.4639 28.0384 35.0672 28.0384C31.6705 28.0384 28.7701 30.4902 28.2043 33.84H14.4076C13.8177 30.3444 10.6952 27.8511 7.1557 28.0482C3.61625 28.2453 0.790578 31.071 0.593438 34.6105C0.396298 38.1499 2.88963 41.2724 6.38527 41.8623V56.175C2.81712 56.7785 0.305659 60.0151 0.608544 63.621C0.91143 67.2269 3.92669 69.9997 7.54545 69.9997C11.1642 69.9997 14.1795 67.2269 14.4816 63.621C14.7845 60.0151 12.2738 56.7785 8.70563 56.175V41.8623C11.6235 41.3638 13.9091 39.0782 14.4076 36.1604H28.2043C28.7701 39.5095 31.6705 41.9613 35.0672 41.9613C38.4639 41.9613 41.3644 39.5095 41.9294 36.1604H55.7261C56.316 39.6553 59.4386 42.1494 62.978 41.9515C66.5175 41.7543 69.3431 38.9287 69.5403 35.3892C69.7382 31.8498 67.2441 28.7272 63.7492 28.1373V13.8247C67.0953 13.2552 69.5448 10.357 69.5501 6.96255ZM12.1862 63.0379C12.1862 65.6007 10.1083 67.6786 7.54545 67.6786C4.98188 67.6786 2.90473 65.6007 2.90473 63.0379C2.90473 60.4743 4.98188 58.3972 7.54545 58.3972C10.1068 58.4002 12.1831 60.4758 12.1862 63.0379ZM7.54545 39.6409C4.98188 39.6409 2.90473 37.563 2.90473 35.0002C2.90473 32.4366 4.98188 30.3595 7.54545 30.3595C10.1083 30.3595 12.1862 32.4366 12.1862 35.0002C12.1831 37.5615 10.1068 39.6379 7.54545 39.6409ZM35.0672 39.6409C32.5037 39.6409 30.4265 37.563 30.4265 35.0002C30.4265 32.4366 32.5037 30.3595 35.0672 30.3595C37.6301 30.3595 39.708 32.4366 39.708 35.0002C39.7049 37.5615 37.6285 39.6379 35.0672 39.6409ZM67.2297 35.0002C67.2297 37.563 65.1518 39.6409 62.589 39.6409C60.0254 39.6409 57.9483 37.563 57.9483 35.0002C57.9483 32.4366 60.0254 30.3595 62.589 30.3595C65.1503 30.3625 67.2267 32.4382 67.2297 35.0002ZM62.589 11.6033C60.0254 11.6033 57.9483 9.52537 57.9483 6.96255C57.9483 4.39897 60.0254 2.32183 62.589 2.32183C65.1518 2.32183 67.2297 4.39897 67.2297 6.96255C67.2267 9.52386 65.1503 11.6002 62.589 11.6033Z" fill="url(#paint2_radial)"/>
<path d="M35.0673 56.0767C31.2227 56.0767 28.1062 59.1931 28.1062 63.0377C28.1062 66.8823 31.2227 69.9988 35.0673 69.9988C38.9119 69.9988 42.0284 66.8823 42.0284 63.0377C42.0238 59.1946 38.9096 56.0804 35.0673 56.0767ZM35.0673 67.6785C32.5037 67.6785 30.4266 65.6006 30.4266 63.0377C30.4266 60.4742 32.5037 58.397 35.0673 58.397C37.6301 58.397 39.708 60.4742 39.708 63.0377C39.705 65.599 37.6286 67.6754 35.0673 67.6785Z" fill="url(#paint3_radial)"/>
<path d="M62.589 56.0767C58.7444 56.0767 55.6279 59.1931 55.6279 63.0377C55.6279 66.8823 58.7444 69.9988 62.589 69.9988C66.4329 69.9988 69.5501 66.8823 69.5501 63.0377C69.5456 59.1946 66.4314 56.0804 62.589 56.0767ZM62.589 67.6785C60.0254 67.6785 57.9483 65.6006 57.9483 63.0377C57.9483 60.4742 60.0254 58.397 62.589 58.397C65.1518 58.397 67.2297 60.4742 67.2297 63.0377C67.2267 65.599 65.1503 67.6754 62.589 67.6785Z" fill="url(#paint4_radial)"/>
</g>
<defs>
<radialGradient id="paint0_radial" cx="0" cy="0" r="1" gradientUnits="userSpaceOnUse" gradientTransform="translate(44.2653 30.0078) rotate(-120.068) scale(37.7086 58.3884)">
<stop stop-color="#3E3CCC"/>
<stop offset="1" stop-color="#912121"/>
</radialGradient>
<radialGradient id="paint1_radial" cx="0" cy="0" r="1" gradientUnits="userSpaceOnUse" gradientTransform="translate(16.7436 30.0078) rotate(-120.068) scale(37.7086 58.3884)">
<stop stop-color="#3E3CCC"/>
<stop offset="1" stop-color="#912121"/>
</radialGradient>
<radialGradient id="paint2_radial" cx="0" cy="0" r="1" gradientUnits="userSpaceOnUse" gradientTransform="translate(80.6329 150.871) rotate(-119.7) scale(188.9 290.317)">
<stop stop-color="#3E3CCC"/>
<stop offset="1" stop-color="#912121"/>
</radialGradient>
<radialGradient id="paint3_radial" cx="0" cy="0" r="1" gradientUnits="userSpaceOnUse" gradientTransform="translate(44.2653 86.083) rotate(-120.068) scale(37.7086 58.3884)">
<stop stop-color="#3E3CCC"/>
<stop offset="1" stop-color="#912121"/>
</radialGradient>
<radialGradient id="paint4_radial" cx="0" cy="0" r="1" gradientUnits="userSpaceOnUse" gradientTransform="translate(71.7871 86.083) rotate(-120.068) scale(37.7086 58.3884)">
<stop stop-color="#3E3CCC"/>
<stop offset="1" stop-color="#912121"/>
</radialGradient>
<clipPath id="clip0">
<rect width="70" height="70" fill="white"/>
</clipPath>
</defs>
</svg>
