<svg width="44" height="44" viewBox="0 0 44 44" fill="none" xmlns="http://www.w3.org/2000/svg">
<path d="M16.3226 27.6775C16.3226 26.7536 15.7273 25.9729 14.9033 25.6791V22.7097C14.9033 20.3613 12.9936 18.4517 10.6452 18.4517C8.29681 18.4517 6.38713 20.3613 6.38713 22.7097V25.6791C5.5631 25.9729 4.96777 26.7536 4.96777 27.6775V34.7742C4.96777 35.9479 5.92314 36.9033 7.09681 36.9033H14.1936C15.3673 36.9033 16.3226 35.9479 16.3226 34.7742V27.6775ZM10.6452 19.871C12.2108 19.871 13.4839 21.1441 13.4839 22.7097V25.5484H7.80648V22.7097C7.80648 21.1441 9.07961 19.871 10.6452 19.871ZM14.9033 34.7742C14.9033 35.1658 14.5845 35.4839 14.1936 35.4839H7.09681C6.70593 35.4839 6.38713 35.1658 6.38713 34.7742V27.6775C6.38713 27.2859 6.70593 26.9678 7.09681 26.9678H14.1936C14.5845 26.9678 14.9033 27.2859 14.9033 27.6775V34.7742Z" fill="white"/>
<path d="M10.6451 28.3871C9.47147 28.3871 8.51611 29.3424 8.51611 30.5161C8.51611 31.4399 9.11144 32.2207 9.93547 32.5145V34.0645H11.3548V32.5145C12.1789 32.2207 12.7742 31.4399 12.7742 30.5161C12.7742 29.3424 11.8188 28.3871 10.6451 28.3871ZM10.6451 31.2258C10.2543 31.2258 9.93547 30.9077 9.93547 30.5161C9.93547 30.1245 10.2543 29.8064 10.6451 29.8064C11.036 29.8064 11.3548 30.1245 11.3548 30.5161C11.3548 30.9077 11.036 31.2258 10.6451 31.2258Z" fill="white"/>
<path d="M11.3548 0V13.828L10.6452 13.3207L9.30759 14.2774C6.78386 16.0793 3.81036 17.0323 0.709677 17.0323H0V25.5484C0 30.277 1.56282 34.9651 4.40014 38.7485L4.50063 38.8826L10.6452 41.9548L11.3548 41.6V44H44V0L11.3548 0ZM27.6774 8.51613C26.5037 8.51613 25.5484 7.56077 25.5484 6.3871C25.5484 5.21343 26.5037 4.25806 27.6774 4.25806C28.8511 4.25806 29.8064 5.21343 29.8064 6.3871C29.8064 7.56077 28.8511 8.51613 27.6774 8.51613ZM29.8064 9.20744V13.5015C29.2118 13.0518 28.4793 12.7742 27.6774 12.7742C26.8756 12.7742 26.143 13.0518 25.5484 13.5022V9.20813C26.143 9.65792 26.8756 9.93548 27.6774 9.93548C28.4793 9.93548 29.2118 9.65792 29.8064 9.20744ZM27.6774 14.1935C28.8511 14.1935 29.8064 15.1489 29.8064 16.3226C29.8064 17.4963 28.8511 18.4516 27.6774 18.4516C26.5037 18.4516 25.5484 17.4963 25.5484 16.3226C25.5484 15.1489 26.5037 14.1935 27.6774 14.1935ZM31.1541 5.67742C30.8242 4.0602 29.3906 2.83871 27.6774 2.83871C25.9642 2.83871 24.5307 4.0602 24.2008 5.67742H17.7419C15.2445 5.67742 13.1772 3.82249 12.831 1.41935H42.5238C42.1776 3.82249 40.1103 5.67742 37.6129 5.67742H31.1541ZM5.43624 37.7633C2.84425 34.2475 1.41935 29.9163 1.41935 25.5484V18.4367C4.56023 18.3019 7.55938 17.2693 10.1327 15.4327L10.6452 15.0657L11.1584 15.432C13.7309 17.2693 16.7301 18.3012 19.871 18.436V25.5484C19.871 29.9163 18.4461 34.2475 15.8541 37.7633L10.6452 40.3678L5.43624 37.7633ZM42.5806 42.5806H12.7742V40.8903L16.7897 38.8826L16.8902 38.7485C19.7275 34.9651 21.2903 30.277 21.2903 25.5484V17.0323H20.5806C17.7974 17.0323 15.1198 16.2581 12.7742 14.7975V4.71513C13.9458 6.16567 15.7363 7.09677 17.7419 7.09677H24.129V16.3226C24.129 18.279 25.721 19.871 27.6774 19.871C29.6339 19.871 31.2258 18.279 31.2258 16.3226V7.09677H37.6129C39.6186 7.09677 41.4091 6.16567 42.5806 4.71513V42.5806Z" fill="white"/>
<path d="M28.3871 6.38717C28.3871 6.77908 28.0694 7.09685 27.6775 7.09685C27.2855 7.09685 26.9678 6.77908 26.9678 6.38717C26.9678 5.99525 27.2855 5.67749 27.6775 5.67749C28.0694 5.67749 28.3871 5.99525 28.3871 6.38717Z" fill="white"/>
<path d="M28.3871 16.3226C28.3871 16.7145 28.0694 17.0323 27.6775 17.0323C27.2855 17.0323 26.9678 16.7145 26.9678 16.3226C26.9678 15.9307 27.2855 15.6129 27.6775 15.6129C28.0694 15.6129 28.3871 15.9307 28.3871 16.3226Z" fill="white"/>
<path d="M25.5483 41.1613H41.1612V31.2258H25.5483V41.1613ZM26.9677 32.6452H39.7419V39.742H26.9677V32.6452Z" fill="white"/>
<path d="M28.3872 34.0645H38.3227V35.4838H28.3872V34.0645Z" fill="white"/>
<path d="M28.3872 36.9032H35.484V38.3226H28.3872V36.9032Z" fill="white"/>
<path d="M36.9033 36.9032H38.3227V38.3226H36.9033V36.9032Z" fill="white"/>
</svg>
