<svg width="18" height="18" viewBox="0 0 18 18" fill="none" xmlns="http://www.w3.org/2000/svg">
<path d="M17.9914 14.2021C18.0295 14.4943 17.9405 14.7484 17.7246 14.9643L15.1903 17.4795C15.0759 17.6065 14.9267 17.7146 14.7425 17.8034C14.5583 17.8924 14.3773 17.9496 14.1995 17.9749C14.1868 17.9749 14.1486 17.9782 14.0851 17.9846C14.0216 17.9909 13.9391 17.9941 13.8374 17.9941C13.596 17.9941 13.2053 17.9528 12.6654 17.8702C12.1255 17.7876 11.465 17.5843 10.6838 17.2605C9.90239 16.9365 9.01635 16.4505 8.0255 15.8027C7.03465 15.1549 5.98023 14.2656 4.86232 13.135C3.97307 12.2584 3.23626 11.42 2.6519 10.6197C2.06753 9.81935 1.5975 9.07937 1.2418 8.39973C0.886073 7.72009 0.619298 7.10397 0.441448 6.55136C0.263599 5.99876 0.142915 5.52238 0.0793972 5.12221C0.0158794 4.72205 -0.00952766 4.40764 0.00317589 4.17898C0.0158794 3.95031 0.0222312 3.82328 0.0222312 3.79787C0.0476383 3.62002 0.104804 3.43899 0.193729 3.25479C0.282654 3.07059 0.390634 2.92132 0.51767 2.80699L3.05203 0.272634C3.22988 0.0947842 3.43314 0.00585938 3.6618 0.00585938C3.82695 0.00585938 3.97304 0.0534977 4.10007 0.148774C4.22711 0.244051 4.33509 0.361559 4.42401 0.501298L6.46293 4.36953C6.57726 4.57279 6.60902 4.7951 6.55821 5.03647C6.50739 5.27783 6.39941 5.48109 6.23427 5.64624L5.30056 6.57995C5.27515 6.60535 5.25292 6.64664 5.23386 6.70381C5.21481 6.76097 5.20528 6.80861 5.20528 6.84672C5.25609 7.1135 5.37043 7.41838 5.54828 7.76138C5.70072 8.06626 5.93573 8.43784 6.25332 8.87611C6.57091 9.31439 7.02189 9.81932 7.60625 10.391C8.17791 10.9754 8.68605 11.4295 9.13068 11.7535C9.57521 12.0773 9.94691 12.3156 10.2454 12.468C10.544 12.6205 10.7726 12.7126 10.9314 12.7443L11.1695 12.7919C11.1949 12.7919 11.2363 12.7824 11.2934 12.7633C11.3506 12.7443 11.3919 12.7221 11.4173 12.6966L12.5034 11.5914C12.7322 11.3882 12.9989 11.2866 13.3038 11.2866C13.5198 11.2866 13.6912 11.3246 13.8183 11.4009H13.8373L17.5149 13.5732C17.7818 13.7385 17.9406 13.948 17.9914 14.2021Z" fill="white"/>
</svg>
