<svg width="44" height="46" viewBox="0 0 44 46" fill="none" xmlns="http://www.w3.org/2000/svg">
<g clip-path="url(#clip0)">
<path d="M32.0979 22.6822C32.0987 21.9463 31.7746 21.2507 31.2184 20.7934C31.805 20.0772 31.9366 19.073 31.5558 18.2207C31.1746 17.368 30.3503 16.8227 29.444 16.8235H24.2728L24.4864 16.2379C24.8228 15.3202 24.9944 14.3469 24.9937 13.3654V13.2782C24.9933 12.5319 24.7015 11.8176 24.1842 11.298C23.6673 10.7785 22.9694 10.498 22.2496 10.5202C20.7926 10.6006 19.6549 11.8548 19.6676 13.3666C19.6676 14.0825 18.6967 15.7276 17.9102 16.8247H12.0783C11.7112 16.8247 11.4138 17.1328 11.4138 17.5133V31.2968C11.4138 31.6773 11.7112 31.9854 12.0783 31.9854H28.4034C29.243 31.9858 30.0176 31.5174 30.4304 30.76C30.8427 30.0022 30.8297 29.073 30.3955 28.3283C31.063 28.0186 31.551 27.401 31.7127 26.6617C31.8747 25.9224 31.6912 25.1473 31.218 24.5693C31.7738 24.1124 32.0979 23.4173 32.0979 22.6822ZM12.7428 18.2023H17.5739V30.6082H12.7428V18.2023ZM29.7707 23.7166H29.4436C29.0765 23.7166 28.7791 24.0248 28.7791 24.4052C28.7791 24.7857 29.0765 25.0939 29.4436 25.0939C29.9946 25.0939 30.4415 25.5569 30.4415 26.1283C30.4415 26.6994 29.9946 27.1624 29.4436 27.1624H28.4034C28.0363 27.1624 27.7389 27.471 27.7389 27.851C27.7389 28.2315 28.0363 28.5397 28.4034 28.5397C28.9545 28.5397 29.4013 29.0027 29.4013 29.5741C29.4013 30.1452 28.9545 30.6082 28.4034 30.6082H18.9029V17.7465C19.4662 16.9745 20.9966 14.748 20.9966 13.367C20.9792 12.5984 21.5476 11.9513 22.2874 11.8967C22.6486 11.8852 22.999 12.0258 23.2586 12.2864C23.5178 12.5469 23.6643 12.9054 23.6643 13.2797V13.367C23.665 14.1816 23.5223 14.9897 23.2434 15.7514L22.6894 17.2712C22.6123 17.4829 22.6401 17.72 22.7643 17.9064C22.8882 18.0924 23.0925 18.2034 23.3109 18.2038H29.4436C29.9946 18.2038 30.4415 18.6669 30.4415 19.2379C30.4415 19.8093 29.9946 20.2724 29.4436 20.2724C29.0765 20.2724 28.7791 20.5806 28.7791 20.961C28.7791 21.3414 29.0765 21.6496 29.4436 21.6496H29.7707C30.3221 21.6496 30.7689 22.1127 30.7689 22.6841C30.7689 23.2555 30.3221 23.7185 29.7707 23.7185V23.7166ZM14.7007 26.6152C13.7455 26.6152 12.9716 27.4176 12.9716 28.4071C12.9716 29.397 13.7455 30.1989 14.7007 30.1989C15.6556 30.1989 16.4299 29.397 16.4299 28.4071C16.4288 27.418 15.6552 26.6164 14.7007 26.6152ZM14.7007 28.8213C14.4797 28.8213 14.3002 28.6357 14.3006 28.4067C14.3006 28.1777 14.4797 27.9917 14.7007 27.9921C14.9221 27.9921 15.1012 28.1781 15.1009 28.4071C15.1005 28.6361 14.9214 28.8213 14.7007 28.8213ZM42.352 21.7703C42.9657 20.7715 43.1678 19.5599 42.9134 18.4056C42.6594 17.2516 41.97 16.2506 40.9992 15.6265C40.0291 14.9994 39.4944 13.8492 39.626 12.6722C39.7607 11.4967 39.4354 10.3139 38.7231 9.38856C38.0107 8.46284 36.9706 7.87106 35.8347 7.74502C34.6982 7.61667 33.7351 6.82161 33.3606 5.70221C32.9894 4.58244 32.2014 3.66325 31.172 3.14948C30.1426 2.63609 28.9574 2.57038 27.8813 2.9681C26.8033 3.36275 25.6022 3.07877 24.7964 2.23836C23.9932 1.39642 22.8982 0.922607 21.7557 0.922607C20.6132 0.922607 19.5181 1.39642 18.7149 2.23836C17.9091 3.07916 16.7076 3.36314 15.63 2.9681C14.5535 2.57076 13.3691 2.63647 12.3397 3.14986C11.3107 3.66364 10.5223 4.58282 10.1511 5.70221C9.77731 6.82199 8.8139 7.61782 7.67733 7.74617C6.54112 7.87221 5.50096 8.464 4.78898 9.38971C4.07663 10.3154 3.75141 11.4978 3.88565 12.6737C4.01767 13.8504 3.48294 15.0005 2.51323 15.6276C1.54242 16.2517 0.853054 17.2524 0.599039 18.4063C0.344654 19.5603 0.546753 20.7715 1.15973 21.7703C1.77121 22.7713 1.77121 24.0479 1.15973 25.0489C0.546382 26.048 0.344283 27.2596 0.598298 28.4136C0.852683 29.568 1.54204 30.569 2.51249 31.1931C3.48294 31.8202 4.0173 32.9703 3.88565 34.147C3.75141 35.3229 4.07663 36.5053 4.78898 37.431C5.50096 38.3567 6.54112 38.9485 7.67733 39.0745C8.81353 39.2025 9.77694 39.998 10.1511 41.117C10.5223 42.2367 11.3107 43.1559 12.3401 43.6697C13.3695 44.1835 14.5543 44.2488 15.6308 43.8515C16.7084 43.456 17.9098 43.74 18.7156 44.5812C19.5189 45.4231 20.6139 45.8969 21.7564 45.8969C22.8989 45.8969 23.994 45.4231 24.7972 44.5812C25.603 43.7404 26.8041 43.4564 27.882 43.8515C28.9582 44.2488 30.143 44.1831 31.172 43.6693C32.2014 43.1559 32.9894 42.2367 33.3606 41.117C33.7348 39.9976 34.6982 39.2017 35.8347 39.0734C36.9706 38.9473 38.0107 38.3556 38.7231 37.4298C39.4354 36.5041 39.7607 35.3217 39.626 34.1458C39.4944 32.9692 40.0288 31.8191 40.9988 31.1919C41.9697 30.5679 42.659 29.5668 42.9134 28.4128C43.1678 27.2585 42.9657 26.0469 42.352 25.0478C41.7412 24.0471 41.7412 22.7713 42.352 21.7703ZM41.231 25.7882C41.6537 26.4769 41.7931 27.3119 41.6177 28.1073C41.4427 28.9028 40.9673 29.5926 40.2984 30.023C38.8907 30.9329 38.1149 32.6018 38.3063 34.3095C38.399 35.12 38.1746 35.935 37.6837 36.5729C37.1927 37.2108 36.4759 37.6185 35.6931 37.7054C34.0437 37.8921 32.646 39.0469 32.1035 40.6716C31.8476 41.4432 31.3044 42.0769 30.595 42.4308C29.8856 42.7847 29.0691 42.8301 28.3274 42.5561C26.7633 41.9823 25.0204 42.3947 23.8512 43.6147C23.2979 44.195 22.5433 44.5216 21.7557 44.5216C20.9684 44.5216 20.2138 44.195 19.6601 43.6147C18.4917 42.3939 16.7481 41.9816 15.1839 42.5561C14.4423 42.8301 13.6257 42.7847 12.9163 42.4308C12.2069 42.0769 11.6637 41.4432 11.4082 40.6716C10.8657 39.0469 9.46767 37.8921 7.81861 37.7054C7.03543 37.6185 6.31863 37.2108 5.82766 36.5729C5.33669 35.935 5.11271 35.12 5.20542 34.3095C5.39676 32.6018 4.62137 30.9325 3.21335 30.023C2.54401 29.5926 2.06899 28.9028 1.89359 28.1073C1.71856 27.3119 1.85799 26.4769 2.28073 25.7882C3.16811 24.3361 3.16811 22.4835 2.28073 21.0309C1.85799 20.3427 1.71856 19.5077 1.89359 18.7118C2.06899 17.9164 2.54401 17.2266 3.21335 16.7966C4.621 15.8866 5.39676 14.2177 5.20579 12.51C5.11308 11.6996 5.33706 10.8845 5.82803 10.2466C6.319 9.60837 7.0358 9.20065 7.81898 9.1138C9.46804 8.92743 10.866 7.7723 11.4086 6.14759C11.6641 5.37597 12.2073 4.74268 12.9167 4.38838C13.6261 4.03446 14.4426 3.9895 15.1843 4.26349C16.7484 4.83683 18.4917 4.42489 19.6605 3.20481C20.2141 2.62456 20.9688 2.29793 21.756 2.29793C22.5437 2.29793 23.2983 2.62456 23.8516 3.20481C25.0208 4.42489 26.7636 4.83683 28.3278 4.26349C29.0694 3.9895 29.886 4.03446 30.5954 4.38838C31.3048 4.74268 31.848 5.37597 32.1039 6.14759C32.6464 7.7723 34.044 8.92743 35.6935 9.1138C36.4763 9.20065 37.1931 9.60837 37.684 10.2466C38.175 10.8845 38.3994 11.6996 38.3067 12.51C38.1149 14.2177 38.8907 15.887 40.2987 16.7966C40.9677 17.2266 41.4431 17.9164 41.6181 18.7118C41.7935 19.5077 41.6541 20.3427 41.2313 21.0309C40.3436 22.4835 40.3436 24.3357 41.231 25.7882ZM21.756 6.65829C12.8281 6.65829 5.59107 14.1586 5.59107 23.41C5.59107 32.6614 12.8288 40.1613 21.7564 40.1613C30.6844 40.1613 37.9214 32.6614 37.9214 23.4096C37.9114 14.1624 30.6795 6.66866 21.756 6.65829ZM21.756 38.7844C13.5623 38.784 6.92011 31.9009 6.92011 23.41C6.92011 14.919 13.5623 8.03591 21.756 8.03591C29.9498 8.03553 36.5923 14.9187 36.5923 23.4096C36.5831 31.8967 29.9461 38.7744 21.756 38.784V38.7844Z" fill="url(#paint0_radial)"/>
</g>
<defs>
<radialGradient id="paint0_radial" cx="0" cy="0" r="1" gradientUnits="userSpaceOnUse" gradientTransform="translate(49.8542 97.8556) rotate(-118.699) scale(120.186 180.781)">
<stop stop-color="#3E3CCC"/>
<stop offset="1" stop-color="#912121"/>
</radialGradient>
<clipPath id="clip0">
<rect width="43.4" height="44.9742" fill="white" transform="translate(0 0.922607)"/>
</clipPath>
</defs>
</svg>
