<svg width="30" height="28" viewBox="0 0 30 28" fill="none" xmlns="http://www.w3.org/2000/svg">
<path d="M12.9168 26.7109L12.9168 21.7049C12.9168 21.0259 12.3664 20.4758 11.6875 20.4758C9.26518 20.4758 7.94753 17.9914 7.76491 13.0878L11.6875 13.0878C12.3664 13.0878 12.9168 12.5372 12.9168 11.8585L12.9168 1.28854C12.9168 0.60995 12.3664 0.0597581 11.6875 0.0597581L1.22904 0.059759C0.549846 0.0597591 -2.38923e-06 0.610382 -2.32994e-06 1.28854L-1.40588e-06 11.8586C-1.20038e-06 14.2092 0.23668 16.3663 0.703252 18.2707C1.18177 20.2233 1.9163 21.9306 2.8858 23.3453C3.8834 24.7992 5.13126 25.94 6.595 26.7348C8.06863 27.5344 9.78228 27.9399 11.6879 27.9399C12.3664 27.9399 12.9168 27.3898 12.9168 26.7109ZM28.7706 20.4757C29.4492 20.4757 30 21.0264 30 21.7048L30 26.7108C30 27.3897 29.4493 27.9399 28.7706 27.9399C26.8657 27.9399 25.1518 27.5342 23.6787 26.7347C22.2147 25.9399 20.9662 24.7991 19.9684 23.3452C18.9992 21.9305 18.2647 20.2232 17.7861 18.2701C17.3198 16.3651 17.0831 14.208 17.0831 11.8585L17.0831 1.28845C17.0831 0.609864 17.6336 0.0596718 18.3124 0.0596717L28.7705 0.0596708C29.4491 0.0596707 29.9994 0.610292 29.9994 1.28845L29.9994 11.8585C29.9994 12.5371 29.4492 13.0878 28.7705 13.0878L24.9039 13.0878C25.0838 17.9913 26.3822 20.4757 28.7706 20.4757Z" fill="#F0F0F0"/>
</svg>
