<svg width="44" height="44" viewBox="0 0 44 44" fill="none" xmlns="http://www.w3.org/2000/svg">
<g clip-path="url(#clip0)">
<path d="M0.644531 32.1262C1.00037 32.1262 1.28906 31.8378 1.28906 31.4817V12.7094H39.3705V19.7942C39.3705 20.1503 39.6592 20.4387 40.015 20.4387C40.3712 20.4387 40.6595 20.1503 40.6595 19.7942V7.05627C40.6595 4.89542 38.9015 3.13739 36.741 3.13739H35.0508V2.33911C35.0508 1.47571 34.3485 0.773438 33.4851 0.773438H32.2877C31.4246 0.773438 30.7223 1.47571 30.7223 2.33911V3.13739H26.4476V2.33911C26.4476 1.47571 25.7453 0.773438 24.8819 0.773438H23.6845C22.8214 0.773438 22.1192 1.47571 22.1192 2.33911V3.13739H17.8441V2.33911C17.8441 1.47571 17.1418 0.773438 16.2784 0.773438H15.0814C14.218 0.773438 13.5157 1.47571 13.5157 2.33911V3.13739H9.24097V2.33911C9.24097 1.47571 8.5387 0.773438 7.67529 0.773438H6.47821C5.61481 0.773438 4.91254 1.47571 4.91254 2.33911V3.13739H3.91888C1.75803 3.13739 0 4.89542 0 7.05627V31.4817C0 31.8378 0.288696 32.1262 0.644531 32.1262ZM32.0114 2.33911C32.0114 2.18671 32.1356 2.0625 32.288 2.0625H33.4854C33.6378 2.0625 33.7617 2.18671 33.7617 2.33911V5.47046C33.7617 5.62286 33.6378 5.74707 33.4854 5.74707H32.288C32.1356 5.74707 32.0114 5.6232 32.0114 5.47046V2.33911ZM23.4082 2.33911C23.4082 2.18671 23.5321 2.0625 23.6845 2.0625H24.8819C25.0343 2.0625 25.1585 2.18671 25.1585 2.33911V5.47046C25.1585 5.62286 25.0343 5.74707 24.8819 5.74707H23.6845C23.5321 5.74707 23.4082 5.6232 23.4082 5.47046V2.33911ZM14.8047 2.33911C14.8047 2.18671 14.929 2.0625 15.0814 2.0625H16.2788C16.4312 2.0625 16.5554 2.18671 16.5554 2.33911V5.47046C16.5554 5.62286 16.4312 5.74707 16.2788 5.74707H15.0814C14.929 5.74707 14.8047 5.6232 14.8047 5.47046V2.33911ZM6.2016 2.33911C6.2016 2.18671 6.32581 2.0625 6.47821 2.0625H7.67563C7.82803 2.0625 7.9519 2.18671 7.9519 2.33911V5.47046C7.9519 5.62286 7.82803 5.74707 7.67563 5.74707H6.47821C6.32581 5.74707 6.2016 5.6232 6.2016 5.47046V2.33911ZM3.91888 4.42645H4.91254V5.47046C4.91254 6.33386 5.61481 7.03613 6.47821 7.03613H7.67563C8.5387 7.03613 9.24097 6.33386 9.24097 5.47046V4.42645H13.516V5.47046C13.516 6.33386 14.2183 7.03613 15.0814 7.03613H16.2788C17.1422 7.03613 17.8445 6.33386 17.8445 5.47046V4.42645H22.1192V5.47046C22.1192 6.33386 22.8214 7.03613 23.6848 7.03613H24.8823C25.7453 7.03613 26.4476 6.33386 26.4476 5.47046V4.42645H30.7223V5.47046C30.7223 6.33386 31.4246 7.03613 32.288 7.03613H33.4854C34.3485 7.03613 35.0508 6.33386 35.0508 5.47046V4.42645H36.741C38.1912 4.42645 39.3708 5.60608 39.3708 7.05627V11.4203H1.28906V7.05627C1.28906 5.60608 2.46869 4.42645 3.91888 4.42645Z" fill="url(#paint0_radial)"/>
<path d="M7.29697 38.1203H1.67679C1.46295 38.1203 1.28906 37.9464 1.28906 37.7326V34.4189C1.28906 34.0628 1.00037 33.7744 0.644531 33.7744C0.288696 33.7744 0 34.0628 0 34.4189V37.7326C0 38.6571 0.752289 39.4094 1.67679 39.4094H7.29697C7.6528 39.4094 7.9415 39.1207 7.9415 38.7648C7.9415 38.4087 7.6528 38.1203 7.29697 38.1203Z" fill="url(#paint1_radial)"/>
<path d="M7.27533 14.5889H5.03491C4.67908 14.5889 4.39038 14.8776 4.39038 15.2334C4.39038 15.5896 4.67908 15.8779 5.03491 15.8779H7.27533C7.63116 15.8779 7.91986 15.5896 7.91986 15.2334C7.91986 14.8776 7.63116 14.5889 7.27533 14.5889Z" fill="url(#paint2_radial)"/>
<path d="M11.9202 15.8779H14.1606C14.5164 15.8779 14.8051 15.5896 14.8051 15.2334C14.8051 14.8776 14.5164 14.5889 14.1606 14.5889H11.9202C11.5643 14.5889 11.2756 14.8776 11.2756 15.2334C11.2756 15.5896 11.5643 15.8779 11.9202 15.8779Z" fill="url(#paint3_radial)"/>
<path d="M18.8052 15.8779H21.0453C21.4011 15.8779 21.6898 15.5896 21.6898 15.2334C21.6898 14.8776 21.4011 14.5889 21.0453 14.5889H18.8052C18.449 14.5889 18.1606 14.8776 18.1606 15.2334C18.1606 15.5896 18.449 15.8779 18.8052 15.8779Z" fill="url(#paint4_radial)"/>
<path d="M25.6899 15.8779H27.9304C28.2862 15.8779 28.5749 15.5896 28.5749 15.2334C28.5749 14.8776 28.2862 14.5889 27.9304 14.5889H25.6899C25.3341 14.5889 25.0454 14.8776 25.0454 15.2334C25.0454 15.5896 25.3341 15.8779 25.6899 15.8779Z" fill="url(#paint5_radial)"/>
<path d="M34.815 14.5889H32.575C32.2188 14.5889 31.9304 14.8776 31.9304 15.2334C31.9304 15.5896 32.2188 15.8779 32.575 15.8779H34.815C35.1709 15.8779 35.4596 15.5896 35.4596 15.2334C35.4596 14.8776 35.1709 14.5889 34.815 14.5889Z" fill="url(#paint6_radial)"/>
<path d="M7.27533 17.8301H5.03491C4.67908 17.8301 4.39038 18.1184 4.39038 18.4746C4.39038 18.8308 4.67908 19.1191 5.03491 19.1191H7.27533C7.63116 19.1191 7.91986 18.8308 7.91986 18.4746C7.91986 18.1184 7.63116 17.8301 7.27533 17.8301Z" fill="url(#paint7_radial)"/>
<path d="M11.9202 19.1191H14.1606C14.5164 19.1191 14.8051 18.8308 14.8051 18.4746C14.8051 18.1184 14.5164 17.8301 14.1606 17.8301H11.9202C11.5643 17.8301 11.2756 18.1184 11.2756 18.4746C11.2756 18.8308 11.5643 19.1191 11.9202 19.1191Z" fill="url(#paint8_radial)"/>
<path d="M18.8052 19.1191H21.0453C21.4011 19.1191 21.6898 18.8308 21.6898 18.4746C21.6898 18.1184 21.4011 17.8301 21.0453 17.8301H18.8052C18.449 17.8301 18.1606 18.1184 18.1606 18.4746C18.1606 18.8308 18.449 19.1191 18.8052 19.1191Z" fill="url(#paint9_radial)"/>
<path d="M25.6899 19.1191H27.9304C28.2862 19.1191 28.5749 18.8308 28.5749 18.4746C28.5749 18.1184 28.2862 17.8301 27.9304 17.8301H25.6899C25.3341 17.8301 25.0454 18.1184 25.0454 18.4746C25.0454 18.8308 25.3341 19.1191 25.6899 19.1191Z" fill="url(#paint10_radial)"/>
<path d="M34.815 17.8301H32.575C32.2188 17.8301 31.9304 18.1184 31.9304 18.4746C31.9304 18.8308 32.2188 19.1191 32.575 19.1191H34.815C35.1709 19.1191 35.4596 18.8308 35.4596 18.4746C35.4596 18.1184 35.1709 17.8301 34.815 17.8301Z" fill="url(#paint11_radial)"/>
<path d="M11.9359 31.7724L15.2498 35.0863C15.7292 35.5657 16.3663 35.8296 17.0444 35.8296C17.7225 35.8296 18.36 35.5657 18.8391 35.0863L27.9145 26.0109C28.9042 25.0212 28.9042 23.4109 27.9145 22.4213C26.9249 21.4317 25.3146 21.4317 24.325 22.4213L17.0444 29.7018L15.5251 28.1828C14.5358 27.1932 12.9255 27.1932 11.9355 28.1828C10.9462 29.1724 10.9462 30.7827 11.9359 31.7724ZM12.8473 29.0942C13.0906 28.8508 13.4106 28.729 13.7305 28.729C14.0504 28.729 14.3703 28.8508 14.6137 29.0942L16.5886 31.0691C16.8403 31.3209 17.2482 31.3209 17.5 31.0691L25.2364 23.333C25.7238 22.8459 26.516 22.8459 27.0028 23.3327C27.4899 23.8198 27.4899 24.6124 27.0028 25.0995L17.9277 34.1746C17.6917 34.4106 17.3781 34.5405 17.0444 34.5405C16.7108 34.5405 16.3972 34.4106 16.1612 34.1746L12.8473 30.8606C12.3602 30.3735 12.3602 29.5813 12.8473 29.0942Z" fill="url(#paint12_radial)"/>
<path d="M40.6595 27.8746V22.7314C40.6595 22.3753 40.3711 22.0869 40.0149 22.0869C39.6591 22.0869 39.3704 22.3753 39.3704 22.7314V27.0525C38.1951 26.4432 36.8614 26.0985 35.4488 26.0985C30.7337 26.0985 26.8977 29.9344 26.8977 34.6496C26.8977 35.8846 27.1612 37.0588 27.6342 38.1203H10.2339C9.87805 38.1203 9.58936 38.4087 9.58936 38.7648C9.58936 39.1207 9.87805 39.4094 10.2339 39.4094H28.3482C29.8847 41.6944 32.4941 43.2007 35.4488 43.2007C40.164 43.2007 43.9999 39.3647 43.9999 34.6496C43.9999 31.8942 42.6894 29.4393 40.6595 27.8746ZM35.4488 41.9116C31.4443 41.9116 28.1868 38.6541 28.1868 34.6496C28.1868 30.6451 31.4447 27.3875 35.4488 27.3875C39.453 27.3875 42.7109 30.6451 42.7109 34.6496C42.7109 38.6541 39.453 41.9116 35.4488 41.9116Z" fill="url(#paint13_radial)"/>
<path d="M35.449 28.3187C31.9581 28.3187 29.1182 31.159 29.1182 34.6496C29.1182 38.1404 31.9581 40.9804 35.449 40.9804C38.9399 40.9804 41.7795 38.1404 41.7795 34.6496C41.7795 31.159 38.9395 28.3187 35.449 28.3187ZM36.0261 39.6571C36.0687 39.5708 36.0935 39.4742 36.0935 39.3714V38.5862C36.0935 38.2304 35.8048 37.9417 35.449 37.9417C35.0932 37.9417 34.8045 38.2304 34.8045 38.5862V39.3714C34.8045 39.4742 34.829 39.5708 34.8719 39.6571C32.5523 39.3916 30.707 37.5463 30.4415 35.2266C30.5274 35.2696 30.6244 35.2941 30.7271 35.2941H31.512C31.8682 35.2941 32.1565 35.0057 32.1565 34.6496C32.1565 34.2934 31.8682 34.005 31.512 34.005H30.7271C30.6244 34.005 30.5274 34.0299 30.4415 34.0725C30.707 31.7529 32.5523 29.9076 34.8719 29.642C34.829 29.7283 34.8045 29.825 34.8045 29.9277V30.7129C34.8045 31.0691 35.0932 31.3574 35.449 31.3574C35.8048 31.3574 36.0935 31.0691 36.0935 30.7129V29.9277C36.0935 29.825 36.0687 29.7283 36.0261 29.642C38.3457 29.9076 40.191 31.7529 40.4565 34.0725C40.3703 34.0299 40.2736 34.005 40.1709 34.005H39.3857C39.0298 34.005 38.7412 34.2934 38.7412 34.6496C38.7412 35.0057 39.0298 35.2941 39.3857 35.2941H40.1709C40.2736 35.2941 40.3703 35.2696 40.4565 35.2266C40.1907 37.5463 38.3457 39.3916 36.0261 39.6571Z" fill="url(#paint14_radial)"/>
<path d="M36.8696 34.0051H36.0935V33.3441C36.0935 32.9883 35.8048 32.6996 35.449 32.6996C35.0928 32.6996 34.8044 32.9883 34.8044 33.3441V34.6496C34.8044 35.0058 35.0928 35.2942 35.449 35.2942H36.8696C37.2255 35.2942 37.5142 35.0058 37.5142 34.6496C37.5142 34.2935 37.2255 34.0051 36.8696 34.0051Z" fill="url(#paint15_radial)"/>
</g>
<defs>
<radialGradient id="paint0_radial" cx="0" cy="0" r="1" gradientUnits="userSpaceOnUse" gradientTransform="translate(47.1925 68.3479) rotate(-126.898) scale(91.8998 157.571)">
<stop stop-color="#3E3CCC"/>
<stop offset="1" stop-color="#912121"/>
</radialGradient>
<radialGradient id="paint1_radial" cx="0" cy="0" r="1" gradientUnits="userSpaceOnUse" gradientTransform="translate(9.21751 45.9194) rotate(-129.211) scale(17.0473 29.8189)">
<stop stop-color="#3E3CCC"/>
<stop offset="1" stop-color="#912121"/>
</radialGradient>
<radialGradient id="paint2_radial" cx="0" cy="0" r="1" gradientUnits="userSpaceOnUse" gradientTransform="translate(8.48696 17.3672) rotate(-147.753) scale(5.6631 9.12607)">
<stop stop-color="#3E3CCC"/>
<stop offset="1" stop-color="#912121"/>
</radialGradient>
<radialGradient id="paint3_radial" cx="0" cy="0" r="1" gradientUnits="userSpaceOnUse" gradientTransform="translate(15.3722 17.3672) rotate(-147.753) scale(5.66309 9.12607)">
<stop stop-color="#3E3CCC"/>
<stop offset="1" stop-color="#912121"/>
</radialGradient>
<radialGradient id="paint4_radial" cx="0" cy="0" r="1" gradientUnits="userSpaceOnUse" gradientTransform="translate(22.2568 17.3672) rotate(-147.751) scale(5.66271 9.12583)">
<stop stop-color="#3E3CCC"/>
<stop offset="1" stop-color="#912121"/>
</radialGradient>
<radialGradient id="paint5_radial" cx="0" cy="0" r="1" gradientUnits="userSpaceOnUse" gradientTransform="translate(29.142 17.3672) rotate(-147.753) scale(5.6631 9.12608)">
<stop stop-color="#3E3CCC"/>
<stop offset="1" stop-color="#912121"/>
</radialGradient>
<radialGradient id="paint6_radial" cx="0" cy="0" r="1" gradientUnits="userSpaceOnUse" gradientTransform="translate(36.0266 17.3672) rotate(-147.751) scale(5.66271 9.12583)">
<stop stop-color="#3E3CCC"/>
<stop offset="1" stop-color="#912121"/>
</radialGradient>
<radialGradient id="paint7_radial" cx="0" cy="0" r="1" gradientUnits="userSpaceOnUse" gradientTransform="translate(8.48696 20.6084) rotate(-147.753) scale(5.6631 9.12607)">
<stop stop-color="#3E3CCC"/>
<stop offset="1" stop-color="#912121"/>
</radialGradient>
<radialGradient id="paint8_radial" cx="0" cy="0" r="1" gradientUnits="userSpaceOnUse" gradientTransform="translate(15.3722 20.6084) rotate(-147.753) scale(5.66309 9.12607)">
<stop stop-color="#3E3CCC"/>
<stop offset="1" stop-color="#912121"/>
</radialGradient>
<radialGradient id="paint9_radial" cx="0" cy="0" r="1" gradientUnits="userSpaceOnUse" gradientTransform="translate(22.2568 20.6084) rotate(-147.751) scale(5.66271 9.12583)">
<stop stop-color="#3E3CCC"/>
<stop offset="1" stop-color="#912121"/>
</radialGradient>
<radialGradient id="paint10_radial" cx="0" cy="0" r="1" gradientUnits="userSpaceOnUse" gradientTransform="translate(29.142 20.6084) rotate(-147.753) scale(5.6631 9.12608)">
<stop stop-color="#3E3CCC"/>
<stop offset="1" stop-color="#912121"/>
</radialGradient>
<radialGradient id="paint11_radial" cx="0" cy="0" r="1" gradientUnits="userSpaceOnUse" gradientTransform="translate(36.0266 20.6084) rotate(-147.751) scale(5.66271 9.12583)">
<stop stop-color="#3E3CCC"/>
<stop offset="1" stop-color="#912121"/>
</radialGradient>
<radialGradient id="paint12_radial" cx="0" cy="0" r="1" gradientUnits="userSpaceOnUse" gradientTransform="translate(31.4627 52.1775) rotate(-125.544) scale(40.7653 68.8583)">
<stop stop-color="#3E3CCC"/>
<stop offset="1" stop-color="#912121"/>
</radialGradient>
<radialGradient id="paint13_radial" cx="0" cy="0" r="1" gradientUnits="userSpaceOnUse" gradientTransform="translate(49.5289 67.5933) rotate(-133.335) scale(68.044 121.289)">
<stop stop-color="#3E3CCC"/>
<stop offset="1" stop-color="#912121"/>
</radialGradient>
<radialGradient id="paint14_radial" cx="0" cy="0" r="1" gradientUnits="userSpaceOnUse" gradientTransform="translate(43.8139 55.6084) rotate(-120.067) scale(34.2943 53.101)">
<stop stop-color="#3E3CCC"/>
<stop offset="1" stop-color="#912121"/>
</radialGradient>
<radialGradient id="paint15_radial" cx="0" cy="0" r="1" gradientUnits="userSpaceOnUse" gradientTransform="translate(37.9495 38.2917) rotate(-121.158) scale(7.10704 11.2371)">
<stop stop-color="#3E3CCC"/>
<stop offset="1" stop-color="#912121"/>
</radialGradient>
<clipPath id="clip0">
<rect width="44" height="44" fill="white"/>
</clipPath>
</defs>
</svg>
