<svg width="44" height="44" viewBox="0 0 44 44" fill="none" xmlns="http://www.w3.org/2000/svg">
<path d="M23.1984 27.8586C23.9618 27.7992 24.6578 27.4098 25.1095 26.7887L31.9757 17.2964C32.1862 17.0053 32.1546 16.6034 31.8994 16.3482C31.6442 16.0938 31.2424 16.0622 30.9512 16.272L21.4575 23.1404C20.8386 23.5906 20.4492 24.2866 20.3898 25.05C20.3304 25.8134 20.6068 26.5606 21.1473 27.1011C21.6394 27.5939 22.303 27.8667 22.9931 27.8667C23.0613 27.8667 23.1295 27.8637 23.1984 27.8586ZM21.852 25.1643C21.8777 24.8292 22.0493 24.5234 22.3192 24.3269L28.1103 20.1374L23.9222 25.927C23.7242 26.1991 23.4184 26.37 23.0833 26.3963C22.7496 26.4184 22.4218 26.3025 22.1835 26.0642C21.9474 25.8273 21.8256 25.4987 21.852 25.1643Z" fill="url(#paint0_radial)"/>
<path d="M39.625 14.3469C39.6177 14.3315 39.6177 14.3154 39.6096 14.3C39.6008 14.2853 39.5869 14.2773 39.5773 14.2633C38.8359 12.9917 37.9589 11.8089 36.963 10.7367L38.5382 9.16227L39.5751 10.1992L42.6859 7.08767L39.5751 3.97687L36.4636 7.08767L37.5013 8.12533L35.9261 9.6998C34.8539 8.70393 33.6718 7.82613 32.3995 7.08473C32.3855 7.0752 32.3775 7.06127 32.3628 7.05247C32.3474 7.04367 32.3313 7.0444 32.3159 7.03633C30.0477 5.72953 27.4993 4.85907 24.7823 4.54007V3.66667H25.8823C26.8936 3.66667 27.7157 2.8446 27.7157 1.83333C27.7157 0.822067 26.8929 0 25.8816 0H19.2816C18.2703 0 17.4483 0.822067 17.4483 1.83333C17.4483 2.8446 18.2703 3.66667 19.2816 3.66667H20.3816V4.5144C19.5896 4.59873 18.7991 4.7278 18.0173 4.90673C17.6228 4.99693 17.3757 5.39073 17.4666 5.78527C17.5568 6.1798 17.9506 6.42767 18.3451 6.336C19.0198 6.18127 19.7011 6.06467 20.3838 5.9862L21.1707 5.92533C21.4112 5.907 21.6327 5.8938 21.8483 5.88353V7.33333C21.8483 7.73887 22.1761 8.06667 22.5816 8.06667C22.9871 8.06667 23.3149 7.73887 23.3149 7.33333V5.88867C26.073 6.01553 28.6719 6.7562 30.9827 7.975L30.2596 9.2268C30.0572 9.57807 30.1775 10.0261 30.528 10.2285C30.6431 10.2953 30.7693 10.3268 30.8939 10.3268C31.1477 10.3268 31.3941 10.1955 31.5297 9.96013L32.2506 8.71127C34.5452 10.1669 36.4944 12.1161 37.9501 14.4107L36.7012 15.1316C36.3514 15.334 36.2311 15.7821 36.4343 16.1333C36.5707 16.3687 36.8163 16.5 37.0701 16.5C37.1947 16.5 37.3209 16.4685 37.436 16.4017L38.6878 15.6787C39.9235 18.0224 40.6663 20.6639 40.7771 23.4659H39.3287C38.9232 23.4659 38.5954 23.7937 38.5954 24.1993C38.5954 24.6048 38.9232 24.9326 39.3287 24.9326H40.7771C40.6663 27.7347 39.9235 30.3761 38.6878 32.7199L37.436 31.9968C37.0855 31.7944 36.6367 31.9132 36.4343 32.2652C36.2319 32.6165 36.3521 33.0645 36.7027 33.2669L37.9515 33.9878C36.4959 36.2824 34.5467 38.2316 32.2521 39.6873L31.5312 38.4384C31.3281 38.0864 30.8785 37.9669 30.5295 38.17C30.1782 38.3724 30.0579 38.8212 30.2611 39.1717L30.9841 40.4235C28.6734 41.6423 26.0745 42.383 23.3164 42.5099V41.0667C23.3164 40.6611 22.9886 40.3333 22.5831 40.3333C22.1775 40.3333 21.8497 40.6611 21.8497 41.0667V42.5157C20.6786 42.4754 19.5038 42.3287 18.3473 42.0633C17.9528 41.9687 17.559 42.2195 17.4688 42.614C17.3779 43.0085 17.625 43.4023 18.0195 43.4925C19.4833 43.8299 20.9785 44 22.4621 44C22.498 44 22.5325 43.9978 22.5684 43.9971C22.5735 43.9971 22.5772 44 22.5816 44C22.5875 44 22.5926 43.9963 22.5985 43.9963C26.1236 43.9721 29.4309 43.0203 32.2924 41.3761C32.3151 41.3659 32.3393 41.3607 32.3613 41.3475C32.376 41.3387 32.3841 41.3248 32.398 41.3153C35.3599 39.589 37.8349 37.1169 39.5649 34.1572C39.5788 34.1374 39.5964 34.122 39.6089 34.1C39.6177 34.0846 39.6169 34.0685 39.6243 34.0531C41.2992 31.1491 42.2621 27.786 42.2621 24.2C42.2621 20.614 41.2992 17.2509 39.625 14.3469ZM39.5744 6.05073L40.6113 7.08767L39.5744 8.12533L38.5367 7.08767L39.5744 6.05073ZM21.8483 4.4154V2.2H19.2816C19.0799 2.2 18.9149 2.035 18.9149 1.83333C18.9149 1.63167 19.0799 1.46667 19.2816 1.46667H25.8816C26.0833 1.46667 26.2483 1.63167 26.2483 1.83333C26.2483 2.035 26.0833 2.2 25.8816 2.2H23.3149V4.4154C23.0597 4.40513 22.8163 4.4 22.5816 4.4C22.5611 4.4 22.5376 4.40147 22.5171 4.40147C22.4987 4.40147 22.4804 4.4 22.4621 4.4C22.3418 4.4 22.2215 4.40807 22.1013 4.41027C22.0162 4.41247 21.9363 4.41173 21.8483 4.4154Z" fill="url(#paint1_radial)"/>
<path d="M15.9815 10.2667H12.3149C11.9093 10.2667 11.5815 10.5945 11.5815 11.0001C11.5815 11.4056 11.9093 11.7334 12.3149 11.7334H15.9815C16.3871 11.7334 16.7149 11.4056 16.7149 11.0001C16.7149 10.5945 16.3871 10.2667 15.9815 10.2667Z" fill="url(#paint2_radial)"/>
<path d="M15.9817 15.4H8.64837C8.24284 15.4 7.91504 15.7278 7.91504 16.1334C7.91504 16.5389 8.24284 16.8667 8.64837 16.8667H15.9817C16.3872 16.8667 16.715 16.5389 16.715 16.1334C16.715 15.7278 16.3872 15.4 15.9817 15.4Z" fill="url(#paint3_radial)"/>
<path d="M15.9816 20.5333H4.98162C4.57609 20.5333 4.24829 20.8611 4.24829 21.2667C4.24829 21.6722 4.57609 22 4.98162 22H15.9816C16.3872 22 16.715 21.6722 16.715 21.2667C16.715 20.8611 16.3872 20.5333 15.9816 20.5333Z" fill="url(#paint4_radial)"/>
<path d="M15.9816 25.6666H2.04827C1.64274 25.6666 1.31494 25.9944 1.31494 26.4C1.31494 26.8055 1.64274 27.1333 2.04827 27.1333H15.9816C16.3871 27.1333 16.7149 26.8055 16.7149 26.4C16.7149 25.9944 16.3871 25.6666 15.9816 25.6666Z" fill="url(#paint5_radial)"/>
<path d="M15.9815 30.8H6.44818C6.04264 30.8 5.71484 31.1278 5.71484 31.5334C5.71484 31.9389 6.04264 32.2667 6.44818 32.2667H15.9815C16.387 32.2667 16.7148 31.9389 16.7148 31.5334C16.7148 31.1278 16.387 30.8 15.9815 30.8Z" fill="url(#paint6_radial)"/>
<path d="M15.9817 35.9333H10.8483C10.4428 35.9333 10.115 36.2612 10.115 36.6667C10.115 37.0722 10.4428 37.4 10.8483 37.4H15.9817C16.3872 37.4 16.715 37.0722 16.715 36.6667C16.715 36.2612 16.3872 35.9333 15.9817 35.9333Z" fill="url(#paint7_radial)"/>
<defs>
<radialGradient id="paint0_radial" cx="0" cy="0" r="1" gradientUnits="userSpaceOnUse" gradientTransform="translate(33.9997 41.4218) rotate(-120.067) scale(31.779 49.2063)">
<stop stop-color="#3E3CCC"/>
<stop offset="1" stop-color="#912121"/>
</radialGradient>
<radialGradient id="paint1_radial" cx="0" cy="0" r="1" gradientUnits="userSpaceOnUse" gradientTransform="translate(46.7411 94.833) rotate(-108.37) scale(108.676 116.073)">
<stop stop-color="#3E3CCC"/>
<stop offset="1" stop-color="#912121"/>
</radialGradient>
<radialGradient id="paint2_radial" cx="0" cy="0" r="1" gradientUnits="userSpaceOnUse" gradientTransform="translate(17.5397 13.4278) rotate(-153.732) scale(7.76827 11.0093)">
<stop stop-color="#3E3CCC"/>
<stop offset="1" stop-color="#912121"/>
</radialGradient>
<radialGradient id="paint3_radial" cx="0" cy="0" r="1" gradientUnits="userSpaceOnUse" gradientTransform="translate(18.129 18.5611) rotate(-163.939) scale(12.4269 11.7979)">
<stop stop-color="#3E3CCC"/>
<stop offset="1" stop-color="#912121"/>
</radialGradient>
<radialGradient id="paint4_radial" cx="0" cy="0" r="1" gradientUnits="userSpaceOnUse" gradientTransform="translate(18.7181 23.6944) rotate(-168.513) scale(17.2635 12.0312)">
<stop stop-color="#3E3CCC"/>
<stop offset="1" stop-color="#912121"/>
</radialGradient>
<radialGradient id="paint5_radial" cx="0" cy="0" r="1" gradientUnits="userSpaceOnUse" gradientTransform="translate(19.1894 28.8277) rotate(-170.658) scale(21.1792 12.1142)">
<stop stop-color="#3E3CCC"/>
<stop offset="1" stop-color="#912121"/>
</radialGradient>
<radialGradient id="paint6_radial" cx="0" cy="0" r="1" gradientUnits="userSpaceOnUse" gradientTransform="translate(18.4823 33.9611) rotate(-167.03) scale(15.3181 11.9639)">
<stop stop-color="#3E3CCC"/>
<stop offset="1" stop-color="#912121"/>
</radialGradient>
<radialGradient id="paint7_radial" cx="0" cy="0" r="1" gradientUnits="userSpaceOnUse" gradientTransform="translate(17.7755 39.0945) rotate(-159) scale(9.59358 11.4617)">
<stop stop-color="#3E3CCC"/>
<stop offset="1" stop-color="#912121"/>
</radialGradient>
</defs>
</svg>
