<svg width="46" height="46" viewBox="0 0 46 46" fill="none" xmlns="http://www.w3.org/2000/svg">
<g clip-path="url(#clip0)">
<path d="M44.1063 19.2192L43.5146 18.7767C42.7776 18.225 42.5161 17.2486 42.8783 16.4025L43.1696 15.7234C43.7613 14.3417 43.6697 12.8028 42.9183 11.5015C42.1666 10.1998 40.88 9.35088 39.3874 9.17295L38.6539 9.08521C37.7397 8.97607 37.0248 8.26118 36.9157 7.34731L36.8283 6.61348C36.65 5.12124 35.8011 3.83431 34.4997 3.08292C33.1981 2.33119 31.6591 2.23959 30.2778 2.83164L29.5984 3.12258C28.7522 3.48511 27.7759 3.2233 27.2242 2.48631L26.7817 1.89496C25.8811 0.691554 24.5029 0.00158691 22.9998 0.00158691C21.4967 0.00158691 20.1185 0.691554 19.218 1.89496L18.7751 2.48631C18.2234 3.22365 17.2474 3.48511 16.4009 3.12258L15.7218 2.83164C14.3401 2.23994 12.8012 2.33119 11.4999 3.08292C10.1982 3.83431 9.34929 5.12124 9.17136 6.61348L9.08362 7.34696C8.97448 8.26118 8.25959 8.97607 7.34537 9.08521L6.61189 9.17295C5.11965 9.35088 3.83272 10.1998 3.08134 11.5015C2.3296 12.8028 2.23836 14.3417 2.83006 15.7234L3.12099 16.4025C3.48352 17.2486 3.22172 18.225 2.48472 18.7767L1.89337 19.2192C0.690317 20.1198 0 21.4983 0 23.0011C0 24.5042 0.690317 25.8827 1.89337 26.7832L2.48507 27.2258C3.22207 27.7775 3.48352 28.7538 3.12134 29.6L2.83006 30.2791C2.23836 31.6607 2.32995 33.1997 3.08134 34.501C3.83307 35.8026 5.11965 36.6516 6.61224 36.8295L7.34572 36.9173C8.25995 37.0264 8.97483 37.7413 9.08397 38.6552L9.17136 39.389C9.34964 40.8812 10.1986 42.1682 11.4999 42.9196C12.8016 43.6709 14.3405 43.7625 15.7218 43.1708L16.4013 42.8799C17.2474 42.5174 18.2238 42.7792 18.7754 43.5162L19.218 44.1075C20.1185 45.3109 21.4971 46.0012 23.0002 46.0012C24.5029 46.0012 25.8815 45.3109 26.782 44.1075L27.2245 43.5162C27.7762 42.7792 28.7522 42.5174 29.5991 42.8802L30.2782 43.1708C31.6595 43.7625 33.1984 43.6713 34.5001 42.9199C35.8014 42.1682 36.6503 40.8812 36.8286 39.389L36.916 38.6555C37.0252 37.7413 37.74 37.0264 38.6543 36.9173L39.3878 36.8299C40.88 36.6516 42.1673 35.8026 42.9187 34.5013C43.67 33.1997 43.7616 31.6607 43.1696 30.2791L42.879 29.6003C42.5165 28.7538 42.7779 27.7775 43.5153 27.2258L44.1066 26.7832C45.31 25.8827 46 24.5042 46 23.0014C45.9996 21.4983 45.3093 20.1198 44.1063 19.2192V19.2192ZM43.0296 25.3447L42.4382 25.7873C41.0348 26.8373 40.5364 28.6963 41.2271 30.3078L41.5177 30.9866C41.8844 31.8425 41.8276 32.7961 41.3622 33.6025C40.8965 34.4094 40.0991 34.9351 39.1744 35.0456L38.4409 35.133C36.7002 35.3408 35.3396 36.7018 35.1318 38.4425L35.0441 39.176C34.9335 40.1007 34.4078 40.8981 33.6013 41.3638C32.7948 41.8292 31.8413 41.886 30.9853 41.5193L30.3062 41.2283C28.6947 40.538 26.836 41.0364 25.7857 42.4398L25.3431 43.0312C24.7851 43.7766 23.9309 44.2044 22.9998 44.2044C22.0684 44.2044 21.2142 43.7766 20.6562 43.0312L20.2136 42.4398C19.4798 41.4589 18.3511 40.9202 17.1881 40.9202C16.6866 40.9202 16.1788 41.0206 15.6934 41.2283L15.0143 41.5193C14.158 41.886 13.2048 41.8292 12.398 41.3638C11.5915 40.8981 11.0658 40.1007 10.9552 39.176L10.8679 38.4425C10.6597 36.7018 9.29911 35.3411 7.5584 35.1334L6.82491 35.0456C5.90016 34.9351 5.1028 34.4094 4.63709 33.6029C4.17174 32.7964 4.11488 31.8429 4.48162 30.9869L4.77256 30.3078C5.46288 28.6966 4.96453 26.8376 3.56143 25.7873L2.96973 25.3447C2.22432 24.7867 1.79686 23.9325 1.79686 23.0011C1.79686 22.07 2.22432 21.2158 2.97008 20.6578L3.56143 20.2152C4.96488 19.1648 5.46323 17.3059 4.77256 15.6946L4.48197 15.0156C4.11523 14.1596 4.17209 13.2061 4.63745 12.3996C5.10316 11.5931 5.90051 11.0674 6.82526 10.9568L7.55875 10.8691C9.29946 10.6613 10.6601 9.3007 10.8679 7.55999L10.9556 6.8265C11.0661 5.90175 11.5919 5.10439 12.3983 4.63868C13.2048 4.17297 14.1584 4.11647 15.0143 4.48321L15.6934 4.7738C17.3046 5.46412 19.1636 4.96612 20.214 3.56267L20.6565 2.97132C21.2145 2.2259 22.0688 1.7981 22.9998 1.7981C23.9309 1.7981 24.7851 2.2259 25.3431 2.97132L25.786 3.56302C26.836 4.96647 28.6954 5.46447 30.3062 4.77415L30.9853 4.48321C31.8413 4.11647 32.7948 4.17332 33.6013 4.63868C34.4078 5.10439 34.9339 5.90175 35.0441 6.8265L35.1318 7.55999C35.3396 9.3007 36.7005 10.6613 38.4409 10.8691L39.1744 10.9568C40.0991 11.0674 40.8965 11.5931 41.3622 12.3996C41.8279 13.2061 41.8844 14.1596 41.518 15.0156L41.2271 15.6946C40.5368 17.3062 41.0348 19.1648 42.4382 20.2152L43.0296 20.6578C43.7753 21.2158 44.2028 22.07 44.2028 23.0014C44.2028 23.9325 43.7753 24.7867 43.0296 25.3447V25.3447Z" fill="url(#paint0_radial)"/>
<path d="M23 5.22192C20.2896 5.22192 17.6869 5.81643 15.2647 6.98895C14.8179 7.20514 14.6312 7.74244 14.8471 8.18885C15.0632 8.63561 15.6009 8.82231 16.0473 8.60613C18.2235 7.55293 20.5626 7.01879 23 7.01879C31.8119 7.01879 38.9811 14.188 38.9811 23.0003C38.9811 31.8123 31.8119 38.9815 23 38.9815C14.1876 38.9815 7.01843 31.8123 7.01843 23.0003C7.01843 19.3908 8.19236 15.9852 10.4135 13.1513C10.7195 12.7607 10.6511 12.196 10.2605 11.8896C9.8699 11.5836 9.30522 11.6524 8.99919 12.0426C6.52816 15.1963 5.22192 18.9851 5.22192 23.0003C5.22192 32.803 13.1972 40.7784 23 40.7784C32.8027 40.7784 40.778 32.803 40.778 23.0003C40.778 13.1973 32.8027 5.22192 23 5.22192V5.22192Z" fill="url(#paint1_radial)"/>
<path d="M9.86377 18.4257L9.17941 19.2982C8.87303 19.6888 8.94146 20.2535 9.33172 20.5595C9.72233 20.8659 10.287 20.7978 10.593 20.4072L10.9689 19.9285V25.8705H10.3674C9.87114 25.8705 9.46894 26.2727 9.46894 26.7689C9.46894 27.2652 9.87114 27.6673 10.3674 27.6673H13.3364C13.8323 27.6673 14.2349 27.2652 14.2349 26.7689C14.2349 26.2727 13.8323 25.8705 13.3364 25.8705H12.7658V18.9802C12.7658 18.484 12.3632 18.0818 11.8674 18.0818H10.5706C10.2947 18.0818 10.034 18.2085 9.86377 18.4257V18.4257Z" fill="url(#paint2_radial)"/>
<path d="M17.0836 27.6674H17.5503C19.0342 27.6674 20.2411 26.4604 20.2411 24.9766V20.6216C20.2411 19.1378 19.0338 17.9305 17.5503 17.9305H17.0836C15.5997 17.9305 14.3928 19.1378 14.3928 20.6216V24.9766C14.3928 26.4604 15.5997 27.6674 17.0836 27.6674V27.6674ZM16.1897 20.6216C16.1897 20.1286 16.5908 19.7274 17.0836 19.7274H17.5503C18.0431 19.7274 18.4442 20.1286 18.4442 20.6216V24.9766C18.4442 25.4693 18.0431 25.8705 17.5503 25.8705H17.0836C16.5908 25.8705 16.1897 25.4693 16.1897 24.9766V20.6216Z" fill="url(#paint3_radial)"/>
<path d="M24.324 27.6674C25.8078 27.6674 27.0148 26.4604 27.0148 24.9766V20.6216C27.0148 19.1378 25.8075 17.9305 24.324 17.9305H23.8573C22.3734 17.9305 21.1665 19.1378 21.1665 20.6216V24.9766C21.1665 26.4604 22.3734 27.6674 23.8573 27.6674H24.324ZM22.9634 24.9766V20.6216C22.9634 20.1286 23.3645 19.7274 23.8573 19.7274H24.324C24.8168 19.7274 25.2179 20.1286 25.2179 20.6216V24.9766C25.2179 25.4693 24.8168 25.8705 24.324 25.8705H23.8573C23.3645 25.8705 22.9634 25.4697 22.9634 24.9766V24.9766Z" fill="url(#paint4_radial)"/>
<path d="M36.189 17.8214C35.7879 17.5297 35.226 17.6185 34.934 18.0197L29.2254 25.8701C28.9335 26.2716 29.0222 26.8335 29.4237 27.1251C29.5831 27.2409 29.768 27.2971 29.9512 27.2971C30.2288 27.2971 30.5029 27.1686 30.6787 26.9268L36.3873 19.0764C36.6793 18.6753 36.5902 18.1134 36.189 17.8214V17.8214Z" fill="url(#paint5_radial)"/>
<path d="M14.9075 14.3999C15.117 14.3999 15.3276 14.3269 15.4978 14.1785C17.5747 12.3648 20.2388 11.366 22.9997 11.366C25.5827 11.366 28.0186 12.2075 30.0443 13.7994C30.4346 14.1062 30.9992 14.0384 31.306 13.6482C31.6124 13.2583 31.5446 12.6932 31.1547 12.3869C28.809 10.5433 25.9891 9.56909 22.9997 9.56909C19.8043 9.56909 16.7202 10.7255 14.3162 12.8248C13.9424 13.1512 13.9038 13.7187 14.2302 14.0925C14.4078 14.296 14.6569 14.3999 14.9075 14.3999V14.3999Z" fill="url(#paint6_radial)"/>
<path d="M14.7424 33.1681C17.0874 35.0113 19.9076 35.9855 22.897 35.9855C24.9711 35.9855 26.9568 35.518 28.7993 34.5964C29.2429 34.3746 29.4226 33.8349 29.2008 33.3909C28.9786 32.9473 28.4392 32.7676 27.9953 32.9894C26.4047 33.7854 24.6893 34.1886 22.897 34.1886C20.3144 34.1886 17.8781 33.3474 15.8524 31.7551C15.4625 31.4488 14.8975 31.5165 14.5911 31.9064C14.2844 32.2967 14.3521 32.8613 14.7424 33.1681V33.1681Z" fill="url(#paint7_radial)"/>
<path d="M31.8223 31.6313C31.6236 31.3337 31.2516 31.1793 30.9003 31.2494C30.5276 31.3242 30.2342 31.6358 30.1847 32.0131C30.1363 32.3795 30.3265 32.7484 30.6522 32.9224C30.9793 33.0976 31.3906 33.0495 31.6696 32.8049C32.0051 32.5097 32.0648 32.0022 31.8223 31.6313Z" fill="url(#paint8_radial)"/>
<path d="M30.2971 17.6498C29.1312 17.6498 28.1826 18.5981 28.1826 19.7639C28.1826 20.9298 29.1312 21.8784 30.2971 21.8784C31.4626 21.8784 32.4112 20.9298 32.4112 19.7639C32.4112 18.5981 31.4626 17.6498 30.2971 17.6498V17.6498ZM30.2971 20.0815C30.122 20.0815 29.9795 19.939 29.9795 19.7639C29.9795 19.5888 30.122 19.4463 30.2971 19.4463C30.4722 19.4463 30.6144 19.5888 30.6144 19.7639C30.6144 19.939 30.4722 20.0815 30.2971 20.0815Z" fill="url(#paint9_radial)"/>
<path d="M33.1692 25.2394C33.1692 26.4052 34.1178 27.3539 35.2833 27.3539C36.4492 27.3539 37.3978 26.4052 37.3978 25.2394C37.3978 24.0735 36.4492 23.1249 35.2833 23.1249C34.1178 23.1249 33.1692 24.0735 33.1692 25.2394V25.2394ZM35.6009 25.2394C35.6009 25.4145 35.4588 25.557 35.2837 25.557C35.1086 25.557 34.9661 25.4145 34.9661 25.2394C34.9661 25.0642 35.1086 24.9218 35.2837 24.9218C35.4588 24.9218 35.6009 25.0642 35.6009 25.2394Z" fill="url(#paint10_radial)"/>
<path d="M11.6321 10.1932C11.7767 10.5402 12.1298 10.7641 12.5053 10.7466C12.8759 10.7291 13.2016 10.4757 13.316 10.124C13.4315 9.76885 13.3058 9.36315 13.0082 9.13679C12.7047 8.90586 12.2807 8.89252 11.9627 9.10274C11.6083 9.33683 11.4721 9.80254 11.6321 10.1932Z" fill="url(#paint11_radial)"/>
</g>
<defs>
<radialGradient id="paint0_radial" cx="0" cy="0" r="1" gradientUnits="userSpaceOnUse" gradientTransform="translate(53.3911 99.1444) rotate(-120.068) scale(124.592 192.92)">
<stop stop-color="#3E3CCC"/>
<stop offset="1" stop-color="#912121"/>
</radialGradient>
<radialGradient id="paint1_radial" cx="0" cy="0" r="1" gradientUnits="userSpaceOnUse" gradientTransform="translate(46.491 81.8566) rotate(-120.067) scale(96.3054 149.12)">
<stop stop-color="#3E3CCC"/>
<stop offset="1" stop-color="#912121"/>
</radialGradient>
<radialGradient id="paint2_radial" cx="0" cy="0" r="1" gradientUnits="userSpaceOnUse" gradientTransform="translate(15.078 38.7415) rotate(-107.583) scale(23.5703 24.2395)">
<stop stop-color="#3E3CCC"/>
<stop offset="1" stop-color="#912121"/>
</radialGradient>
<radialGradient id="paint3_radial" cx="0" cy="0" r="1" gradientUnits="userSpaceOnUse" gradientTransform="translate(21.1808 38.9163) rotate(-109.174) scale(24.1641 26.7687)">
<stop stop-color="#3E3CCC"/>
<stop offset="1" stop-color="#912121"/>
</radialGradient>
<radialGradient id="paint4_radial" cx="0" cy="0" r="1" gradientUnits="userSpaceOnUse" gradientTransform="translate(27.9544 38.9163) rotate(-109.174) scale(24.1641 26.7687)">
<stop stop-color="#3E3CCC"/>
<stop offset="1" stop-color="#912121"/>
</radialGradient>
<radialGradient id="paint5_radial" cx="0" cy="0" r="1" gradientUnits="userSpaceOnUse" gradientTransform="translate(37.7652 38.4427) rotate(-114.247) scale(24.8021 33.1643)">
<stop stop-color="#3E3CCC"/>
<stop offset="1" stop-color="#912121"/>
</radialGradient>
<radialGradient id="paint6_radial" cx="0" cy="0" r="1" gradientUnits="userSpaceOnUse" gradientTransform="translate(34.308 19.9809) rotate(-154.493) scale(26.2966 36.4963)">
<stop stop-color="#3E3CCC"/>
<stop offset="1" stop-color="#912121"/>
</radialGradient>
<radialGradient id="paint7_radial" cx="0" cy="0" r="1" gradientUnits="userSpaceOnUse" gradientTransform="translate(31.6894 41.0945) rotate(-152.852) scale(22.7183 32.9395)">
<stop stop-color="#3E3CCC"/>
<stop offset="1" stop-color="#912121"/>
</radialGradient>
<radialGradient id="paint8_radial" cx="0" cy="0" r="1" gradientUnits="userSpaceOnUse" gradientTransform="translate(32.258 35.1003) rotate(-120.044) scale(4.85923 7.52045)">
<stop stop-color="#3E3CCC"/>
<stop offset="1" stop-color="#912121"/>
</radialGradient>
<radialGradient id="paint9_radial" cx="0" cy="0" r="1" gradientUnits="userSpaceOnUse" gradientTransform="translate(33.0907 26.7637) rotate(-120.068) scale(11.4534 17.7345)">
<stop stop-color="#3E3CCC"/>
<stop offset="1" stop-color="#912121"/>
</radialGradient>
<radialGradient id="paint10_radial" cx="0" cy="0" r="1" gradientUnits="userSpaceOnUse" gradientTransform="translate(38.0773 32.2396) rotate(-120.066) scale(11.4541 17.7349)">
<stop stop-color="#3E3CCC"/>
<stop offset="1" stop-color="#912121"/>
</radialGradient>
<radialGradient id="paint11_radial" cx="0" cy="0" r="1" gradientUnits="userSpaceOnUse" gradientTransform="translate(13.6466 12.8198) rotate(-120.055) scale(4.8577 7.51986)">
<stop stop-color="#3E3CCC"/>
<stop offset="1" stop-color="#912121"/>
</radialGradient>
<clipPath id="clip0">
<rect width="46" height="46" fill="white"/>
</clipPath>
</defs>
</svg>
