<svg width="23" height="16" viewBox="0 0 23 16" fill="none" xmlns="http://www.w3.org/2000/svg">
<path d="M18.1291 12.2589C18.0419 12.2589 17.9546 12.227 17.8865 12.1624L13.8046 8.33308C13.662 8.19971 13.6549 7.97483 13.789 7.83224C13.9231 7.68823 14.1465 7.68185 14.2905 7.81663L18.3724 11.646C18.515 11.7794 18.5221 12.0042 18.3881 12.1468C18.3178 12.2213 18.2242 12.2589 18.1291 12.2589Z" fill="black"/>
<path d="M4.50373 12.2591C4.40938 12.2591 4.31503 12.2215 4.2448 12.147C4.11073 12.0044 4.11782 11.7795 4.26041 11.6462L8.34373 7.8168C8.48703 7.68344 8.71191 7.68911 8.84528 7.83241C8.97936 7.975 8.97226 8.19988 8.82967 8.33325L4.74635 12.1626C4.67825 12.2272 4.59099 12.2591 4.50373 12.2591Z" fill="black"/>
<path d="M20.5434 15.8199H2.0904C1.11284 15.8199 0.316895 15.0247 0.316895 14.0464V1.95319C0.316895 0.974928 1.11284 0.179688 2.0904 0.179688H20.5434C21.5209 0.179688 22.3169 0.974928 22.3169 1.95319V14.0464C22.3169 15.0247 21.5209 15.8199 20.5434 15.8199ZM2.0904 0.88909C1.50373 0.88909 1.0263 1.36652 1.0263 1.95319V14.0464C1.0263 14.6331 1.50373 15.1105 2.0904 15.1105H20.5434C21.1301 15.1105 21.6075 14.6331 21.6075 14.0464V1.95319C21.6075 1.36652 21.1301 0.88909 20.5434 0.88909H2.0904Z" fill="black"/>
<path d="M11.3169 9.78235C10.8451 9.78235 10.3734 9.62557 10.0144 9.31273L0.905661 1.3667C0.758105 1.2383 0.742498 1.01413 0.8709 0.865866C1.00072 0.71831 1.22418 0.704831 1.37174 0.831815L10.4805 8.77713C10.9338 9.17227 11.6999 9.17227 12.1525 8.77713L21.2499 0.844584C21.3968 0.716182 21.6202 0.73037 21.7508 0.878635C21.8792 1.0269 21.8643 1.25036 21.7167 1.37947L12.6193 9.31202C12.2597 9.62557 11.7886 9.78235 11.3169 9.78235Z" fill="black"/>
</svg>
