<svg width="184" height="70" viewBox="0 0 184 70" fill="none" xmlns="http://www.w3.org/2000/svg">
<rect x="34.6542" y="1.27789" width="47.3786" height="47.3786" rx="1.1894" transform="rotate(44.7858 34.6542 1.27789)" stroke="#E31251" stroke-width="1.80723"/>
<path d="M35.5277 29.3735C37.1301 29.3735 38.3952 29.8458 39.3229 30.7904C40.2675 31.7181 40.7398 33 40.7398 34.6361C40.7398 36.3398 40.2759 37.6639 39.3482 38.6084C38.4205 39.5361 37.147 40 35.5277 40H30.847V22.2892H39.7783V24.2373H32.947V29.3735H35.5277ZM35.4518 38.0518C36.4301 38.0518 37.1976 37.7651 37.7542 37.1916C38.3277 36.6012 38.6145 35.7494 38.6145 34.6361C38.6145 33.5566 38.3277 32.7301 37.7542 32.1566C37.1976 31.5831 36.4301 31.2964 35.4518 31.2964H32.947V38.0518H35.4518ZM43.1204 40V26.6916H45.0686V33.2699C45.0686 34.6867 45.0518 35.8 45.018 36.6096L45.0686 36.6602C45.4566 35.6145 45.8445 34.653 46.2325 33.7759L49.6229 26.6916H51.647V40H49.7241V33.8771C49.7241 32.3422 49.7578 31.0349 49.8253 29.9554L49.7747 29.9301C49.471 30.9422 49.0409 32.0301 48.4843 33.194L45.1445 40H43.1204ZM60.7791 33.0169C61.3863 33.253 61.8924 33.6494 62.2972 34.206C62.702 34.7626 62.9044 35.4036 62.9044 36.1289C62.9044 37.3771 62.4827 38.3807 61.6393 39.1398C60.8128 39.8988 59.7249 40.2783 58.3755 40.2783C56.9755 40.2783 55.8622 39.9072 55.0357 39.1651C54.2092 38.406 53.7707 37.4108 53.7201 36.1795H55.6683C55.7189 36.8542 55.9719 37.394 56.4273 37.7988C56.8996 38.1867 57.549 38.3807 58.3755 38.3807C59.1851 38.3807 59.8092 38.1783 60.2478 37.7735C60.7032 37.3687 60.9309 36.7867 60.9309 36.0277C60.9309 35.3867 60.7032 34.8807 60.2478 34.5096C59.8092 34.1386 59.1767 33.953 58.3502 33.953H56.5538V32.3084H58.2743C58.9659 32.3084 59.514 32.1398 59.9189 31.8024C60.3406 31.4651 60.5514 30.9759 60.5514 30.3349C60.5514 29.7277 60.3574 29.2386 59.9695 28.8675C59.5815 28.4964 59.0418 28.3108 58.3502 28.3108C56.849 28.3108 56.0478 29.0783 55.9466 30.6133H53.9984C54.0659 29.2976 54.4707 28.2771 55.2128 27.5518C55.955 26.8265 56.9924 26.4639 58.3249 26.4639C59.5393 26.4639 60.5345 26.8181 61.3104 27.5265C62.1032 28.2349 62.4996 29.1205 62.4996 30.1831C62.4996 31.5157 61.9261 32.4602 60.7791 33.0169ZM71.5602 26.6916H73.559V40H71.5602V34.0795H67.1831V40H65.2096V26.6916H67.1831V32.2072H71.5602V26.6916ZM83.5555 35.8759H85.529C85.4278 37.2759 84.964 38.3639 84.1375 39.1398C83.3278 39.8988 82.2146 40.2783 80.7977 40.2783C79.4314 40.2783 78.3519 39.8482 77.5591 38.988C76.7664 38.1277 76.37 36.9301 76.37 35.3952V31.2205C76.37 29.6855 76.7664 28.4964 77.5591 27.653C78.3688 26.7928 79.4567 26.3626 80.823 26.3626C82.223 26.3626 83.3278 26.7928 84.1375 27.653C84.9471 28.4964 85.3519 29.6855 85.3519 31.2205V34.1807H78.3941V35.3952C78.3941 37.3518 79.2122 38.3301 80.8483 38.3301C81.6917 38.3301 82.3242 38.1361 82.7459 37.7482C83.1676 37.3602 83.4375 36.7361 83.5555 35.8759ZM80.8483 28.2602C79.2122 28.2602 78.3941 29.2386 78.3941 31.1952V32.5361H83.3784V31.1952C83.3784 29.2386 82.535 28.2602 80.8483 28.2602ZM92.2123 40.2783C90.8629 40.2783 89.7918 39.8566 88.999 39.0133C88.2063 38.153 87.8099 36.9639 87.8099 35.4458V31.1699C87.8099 29.6518 88.2063 28.4711 88.999 27.6277C89.7918 26.7843 90.8629 26.3626 92.2123 26.3626C93.5954 26.3626 94.6749 26.7843 95.4509 27.6277C96.2436 28.4542 96.6653 29.6349 96.7159 31.1699H94.6918C94.6412 29.247 93.8147 28.2855 92.2123 28.2855C90.6268 28.2855 89.834 29.247 89.834 31.1699V35.4458C89.834 37.3687 90.6268 38.3301 92.2123 38.3301C93.8316 38.3301 94.6749 37.3687 94.7424 35.4458H96.7412C96.7075 36.9807 96.2858 38.1699 95.4762 39.0133C94.6834 39.8566 93.5954 40.2783 92.2123 40.2783ZM98.6279 34.3831V32.5867H104.776V34.3831H98.6279ZM111.206 26.3626C112.556 26.3626 113.627 26.7843 114.42 27.6277C115.212 28.4711 115.609 29.6518 115.609 31.1699V35.4458C115.609 36.9639 115.212 38.153 114.42 39.0133C113.627 39.8566 112.556 40.2783 111.206 40.2783C109.823 40.2783 108.727 39.8651 107.917 39.0386C107.124 38.1952 106.711 37.0229 106.677 35.5217H108.676C108.744 37.394 109.587 38.3301 111.206 38.3301C112.792 38.3301 113.585 37.3687 113.585 35.4458V34.0542H109.309V32.4855H113.585V31.1699C113.585 29.247 112.792 28.2855 111.206 28.2855C109.604 28.2855 108.777 29.2301 108.727 31.1193H106.703C106.753 29.6012 107.167 28.4289 107.943 27.6024C108.735 26.7759 109.823 26.3626 111.206 26.3626ZM125.44 40L121.341 33.9783L120.38 35.0663V40H118.406V26.6916H120.38V32.5614C120.532 32.359 120.81 31.9795 121.215 31.4229C121.62 30.8494 121.932 30.4108 122.151 30.1072L124.706 26.6916H127.161L122.632 32.4096L127.793 40H125.44ZM132.833 40.2783C131.483 40.2783 130.412 39.8566 129.619 39.0133C128.827 38.153 128.43 36.9639 128.43 35.4458V31.1699C128.43 29.6518 128.827 28.4711 129.619 27.6277C130.412 26.7843 131.483 26.3626 132.833 26.3626C134.216 26.3626 135.295 26.7843 136.071 27.6277C136.864 28.4542 137.286 29.6349 137.336 31.1699H135.312C135.262 29.247 134.435 28.2855 132.833 28.2855C131.247 28.2855 130.454 29.247 130.454 31.1699V35.4458C130.454 37.3687 131.247 38.3301 132.833 38.3301C134.452 38.3301 135.295 37.3687 135.363 35.4458H137.362C137.328 36.9807 136.906 38.1699 136.096 39.0133C135.304 39.8566 134.216 40.2783 132.833 40.2783ZM148.104 26.6916V40H146.105V28.5386H141.728V40H139.754V26.6916H148.104ZM158.1 35.8759H160.074C159.972 37.2759 159.509 38.3639 158.682 39.1398C157.872 39.8988 156.759 40.2783 155.342 40.2783C153.976 40.2783 152.897 39.8482 152.104 38.988C151.311 38.1277 150.915 36.9301 150.915 35.3952V31.2205C150.915 29.6855 151.311 28.4964 152.104 27.653C152.913 26.7928 154.001 26.3626 155.368 26.3626C156.768 26.3626 157.872 26.7928 158.682 27.653C159.492 28.4964 159.897 29.6855 159.897 31.2205V34.1807H152.939V35.3952C152.939 37.3518 153.757 38.3301 155.393 38.3301C156.236 38.3301 156.869 38.1361 157.291 37.7482C157.712 37.3602 157.982 36.7361 158.1 35.8759ZM155.393 28.2602C153.757 28.2602 152.939 29.2386 152.939 31.1952V32.5361H157.923V31.1952C157.923 29.2386 157.08 28.2602 155.393 28.2602ZM167.44 26.3879C168.705 26.3879 169.717 26.8434 170.476 27.7542C171.252 28.6482 171.64 29.9048 171.64 31.5241V35.2434C171.64 36.8627 171.261 38.1108 170.502 38.988C169.759 39.8651 168.739 40.3036 167.44 40.3036C166.31 40.3036 165.374 39.8819 164.632 39.0386V44.5542H162.683V26.6663H164.176L164.379 27.906C165.138 26.894 166.158 26.3879 167.44 26.3879ZM169.616 35.2434V31.5241C169.616 29.3313 168.773 28.2349 167.086 28.2349C166.361 28.2349 165.77 28.5133 165.315 29.0699C164.859 29.6265 164.632 30.4277 164.632 31.4735V35.2434C164.632 36.2048 164.851 36.9807 165.289 37.5711C165.728 38.1446 166.327 38.4313 167.086 38.4313C168.773 38.4313 169.616 37.3687 169.616 35.2434ZM180.687 26.6916V28.5386H177.524V40H175.551V28.5386H172.388V26.6916H180.687Z" fill="white"/>
<path d="M34.659 54.1685H35.7976L33.8892 46.5781H32.7072L30.7988 54.1685H31.9482L32.2952 52.6395H34.3012L34.659 54.1685ZM32.5337 51.6203L33 49.5817C33.1193 49.0829 33.2277 48.3564 33.2819 47.9552H33.3145C33.3687 48.3564 33.488 49.0829 33.5964 49.5817L34.0735 51.6203H32.5337ZM39.4799 48.4432H36.5088V54.1685H37.5714V49.4516H39.4799V48.4432ZM42.9289 52.3793C42.8313 52.9974 42.5602 53.2793 41.9205 53.2793C41.3458 53.2793 41.0096 52.9215 41.0096 52.1407V51.707H43.9048V50.4383C43.9048 49.0829 43.1349 48.313 41.9096 48.313C40.706 48.313 39.9578 49.0829 39.9578 50.4383V52.1407C39.9578 53.507 40.706 54.2877 41.8988 54.2877C43.1349 54.2877 43.8831 53.5938 43.9807 52.3793H42.9289ZM41.9205 49.2998C42.5168 49.2998 42.8638 49.6468 42.8638 50.4275V50.9154H41.0096V50.4275C41.0096 49.6468 41.3458 49.2998 41.9205 49.2998ZM47.6577 48.454V50.7528H46.0637V48.454H45.0119V54.1685H46.0637V51.7287H47.6577V54.1685H48.7095V48.454H47.6577ZM53.1014 48.454H49.4472V49.4407H50.7484V54.1685H51.7894V49.4407H53.1014V48.454ZM55.4633 54.2877C56.6778 54.2877 57.4368 53.5287 57.4694 52.195H56.4175C56.385 52.9215 56.0597 53.2793 55.4742 53.2793C54.9212 53.2793 54.5959 52.9215 54.5959 52.195V50.395C54.5959 49.6685 54.9212 49.3215 55.4742 49.3215C56.0489 49.3215 56.3633 49.6685 56.385 50.395H57.4477C57.4043 49.0721 56.6995 48.313 55.4633 48.313C54.2706 48.313 53.5332 49.0721 53.5332 50.395V52.195C53.5332 53.5287 54.2706 54.2877 55.4633 54.2877ZM61.5305 48.454H57.8762V49.4407H59.1774V54.1685H60.2184V49.4407H61.5305V48.454ZM65.1353 51.1323C65.5365 50.8721 65.7642 50.4492 65.7642 50.0371C65.7642 49.0504 65.1353 48.454 63.975 48.454H62.2618V54.1685H64.0618C65.3955 54.1685 66.057 53.5395 66.057 52.5094C66.057 51.9456 65.775 51.3817 65.1353 51.1323ZM63.2811 49.3323H63.91C64.4521 49.3323 64.7341 49.6142 64.7341 50.0588C64.7341 50.5359 64.4521 50.7962 63.9208 50.7962H63.2811V49.3323ZM64.1052 53.2793H63.2811V51.6853H64.1052C64.7232 51.6853 65.016 51.9564 65.016 52.4769C65.016 52.9974 64.7232 53.2793 64.1052 53.2793ZM68.797 54.2986C70.0439 54.2986 70.8138 53.5287 70.8138 52.1299V50.4817C70.8138 49.0829 70.0439 48.313 68.797 48.313C67.5608 48.313 66.7909 49.0829 66.7909 50.4817V52.1299C66.7909 53.5287 67.5608 54.2986 68.797 54.2986ZM68.797 53.2793C68.2114 53.2793 67.8536 52.9323 67.8536 52.1299V50.4817C67.8536 49.6793 68.2114 49.3323 68.797 49.3323C69.3933 49.3323 69.7512 49.6793 69.7512 50.4817V52.1299C69.7512 52.9323 69.3933 53.2793 68.797 53.2793ZM77.9676 48.454H74.27V54.1685H75.3218V49.4191H76.9158V54.1685H77.9676V48.454ZM78.5968 54.2444C79.7245 54.2444 80.2667 53.4745 80.4077 51.8805C80.4727 51.2191 80.5378 50.0913 80.5486 49.4191H81.8281V54.1685H82.8691V48.454H79.5402C79.5185 49.56 79.4426 50.8829 79.3775 51.707C79.2908 52.6179 79.1715 53.2359 78.5968 53.2359V54.2444ZM85.9394 48.313C84.79 48.313 84.0526 48.9853 83.9984 50.0805H85.0502C85.1045 49.5709 85.4514 49.3215 85.9177 49.3215C86.4924 49.3215 86.7418 49.701 86.7418 50.3733V50.7745H85.9069C84.649 50.7745 83.8358 51.3709 83.8358 52.542C83.8358 53.6154 84.5406 54.3094 85.5924 54.3094C86.2213 54.3094 86.6334 54.0166 86.8611 53.6371L86.937 54.1685H87.7936V50.3733C87.7936 49.0612 87.1647 48.313 85.9394 48.313ZM86.7418 52.466C86.7418 53.0082 86.384 53.3769 85.8093 53.3769C85.2346 53.3769 84.8984 53.0624 84.8984 52.542C84.8984 51.9781 85.2671 51.6853 85.9069 51.6853H86.7418V52.466ZM91.6983 48.454V50.7528H90.1044V48.454H89.0525V54.1685H90.1044V51.7287H91.6983V54.1685H92.7501V48.454H91.6983ZM94.0083 54.1685H95.0818L96.177 51.8805C96.4047 51.3926 96.7625 50.3624 96.8167 50.1239L96.8493 50.1347C96.8167 50.7094 96.7951 51.4251 96.7951 51.9781V54.1685H97.8143V48.454H96.7408L95.6348 50.8504C95.4505 51.3166 95.1252 52.1733 95.0384 52.466L95.0059 52.4444C95.0276 51.8263 95.0276 51.3166 95.0276 50.8612V48.454H94.0083V54.1685ZM101.195 48.3239C100.686 48.3239 100.187 48.6058 99.9049 48.9745L99.829 48.4432H99.07V56.1203H100.1V53.8432C100.382 54.1359 100.783 54.2986 101.195 54.2986C102.301 54.2986 103.017 53.4962 103.017 52.1082V50.5359C103.017 49.1371 102.28 48.3239 101.195 48.3239ZM101.943 52.1082C101.943 52.9432 101.629 53.3118 101.022 53.3118C100.447 53.3118 100.1 52.8564 100.1 52.1082V50.5251C100.1 49.7118 100.48 49.3106 101.022 49.3106C101.607 49.3106 101.943 49.6901 101.943 50.5359V52.1082ZM106.008 54.2986C107.255 54.2986 108.024 53.5287 108.024 52.1299V50.4817C108.024 49.0829 107.255 48.313 106.008 48.313C104.771 48.313 104.001 49.0829 104.001 50.4817V52.1299C104.001 53.5287 104.771 54.2986 106.008 54.2986ZM106.008 53.2793C105.422 53.2793 105.064 52.9323 105.064 52.1299V50.4817C105.064 49.6793 105.422 49.3323 106.008 49.3323C106.604 49.3323 106.962 49.6793 106.962 50.4817V52.1299C106.962 52.9323 106.604 53.2793 106.008 53.2793ZM112.024 51.1323C112.426 50.8721 112.653 50.4492 112.653 50.0371C112.653 49.0504 112.024 48.454 110.864 48.454H109.151V54.1685H110.951C112.285 54.1685 112.946 53.5395 112.946 52.5094C112.946 51.9456 112.664 51.3817 112.024 51.1323ZM110.17 49.3323H110.799C111.341 49.3323 111.623 49.6142 111.623 50.0588C111.623 50.5359 111.341 50.7962 110.81 50.7962H110.17V49.3323ZM110.994 53.2793H110.17V51.6853H110.994C111.612 51.6853 111.905 51.9564 111.905 52.4769C111.905 52.9974 111.612 53.2793 110.994 53.2793ZM115.621 48.313C114.472 48.313 113.734 48.9853 113.68 50.0805H114.732C114.786 49.5709 115.133 49.3215 115.599 49.3215C116.174 49.3215 116.423 49.701 116.423 50.3733V50.7745H115.588C114.331 50.7745 113.517 51.3709 113.517 52.542C113.517 53.6154 114.222 54.3094 115.274 54.3094C115.903 54.3094 116.315 54.0166 116.543 53.6371L116.619 54.1685H117.475V50.3733C117.475 49.0612 116.846 48.313 115.621 48.313ZM116.423 52.466C116.423 53.0082 116.066 53.3769 115.491 53.3769C114.916 53.3769 114.58 53.0624 114.58 52.542C114.58 51.9781 114.949 51.6853 115.588 51.6853H116.423V52.466ZM121.38 48.454V50.7528H119.786V48.454H118.734V54.1685H119.786V51.7287H121.38V54.1685H122.432V48.454H121.38ZM123.69 54.1685H124.763L125.859 51.8805C126.086 51.3926 126.444 50.3624 126.498 50.1239L126.531 50.1347C126.498 50.7094 126.477 51.4251 126.477 51.9781V54.1685H127.496V48.454H126.422L125.316 50.8504C125.132 51.3166 124.807 52.1733 124.72 52.466L124.688 52.4444C124.709 51.8263 124.709 51.3166 124.709 50.8612V48.454H123.69V54.1685ZM130.324 48.454C129.185 48.454 128.405 49.1588 128.405 50.3191C128.405 51.2516 128.849 51.848 129.435 52.0865L128.22 54.1685H129.413L130.443 52.2383H131.061V54.1685H132.08V48.454H130.324ZM131.061 51.3383H130.346C129.738 51.3383 129.435 50.9913 129.435 50.3516C129.435 49.7552 129.76 49.4082 130.367 49.4082H131.061V51.3383Z" fill="white"/>
<line x1="6.70662" y1="34.7656" x2="21.1974" y2="48.6989" stroke="#E31251" stroke-width="1.80723"/>
<line x1="6.40792" y1="34.9421" x2="18.966" y2="22.384" stroke="#E31251" stroke-width="1.80723"/>
</svg>
