<svg width="158" height="61" viewBox="0 0 158 61" fill="none" xmlns="http://www.w3.org/2000/svg">
<rect x="30.258" y="1.1041" width="40.9351" height="40.9351" rx="1.02764" transform="rotate(44.7858 30.258 1.1041)" stroke="#E31251" stroke-width="1.56145"/>
<path d="M30.6399 25.8187C32.0244 25.8187 33.1174 26.2268 33.919 27.0429C34.7351 27.8444 35.1432 28.952 35.1432 30.3656C35.1432 31.8376 34.7424 32.9816 33.9408 33.7977C33.1393 34.5992 32.039 35 30.6399 35H26.5958V19.6978H34.3125V21.3811H28.4102V25.8187H30.6399ZM30.5744 33.3168C31.4196 33.3168 32.0827 33.069 32.5636 32.5735C33.0591 32.0634 33.3069 31.3275 33.3069 30.3656C33.3069 29.4329 33.0591 28.7188 32.5636 28.2233C32.0827 27.7278 31.4196 27.4801 30.5744 27.4801H28.4102V33.3168H30.5744ZM37.2001 35V23.5015H38.8833V29.1852C38.8833 30.4093 38.8687 31.3712 38.8396 32.0707L38.8833 32.1144C39.2185 31.2109 39.5537 30.3802 39.8889 29.6224L42.8181 23.5015H44.567V35H42.9056V29.7098C42.9056 28.3836 42.9347 27.2542 42.993 26.3215L42.9493 26.2996C42.687 27.174 42.3154 28.114 41.8344 29.1196L38.9489 35H37.2001ZM52.4571 28.9666C52.9818 29.1706 53.419 29.5131 53.7688 29.994C54.1185 30.4749 54.2934 31.0287 54.2934 31.6554C54.2934 32.7338 53.9291 33.6009 53.2004 34.2568C52.4863 34.9126 51.5463 35.2405 50.3804 35.2405C49.1708 35.2405 48.209 34.9198 47.4949 34.2786C46.7808 33.6228 46.4019 32.763 46.3581 31.6991H48.0414C48.0851 32.282 48.3037 32.7484 48.6972 33.0982C49.1052 33.4333 49.6663 33.6009 50.3804 33.6009C51.08 33.6009 51.6192 33.4261 51.9981 33.0763C52.3916 32.7265 52.5883 32.2237 52.5883 31.5679C52.5883 31.0141 52.3916 30.5769 51.9981 30.2563C51.6192 29.9357 51.0727 29.7754 50.3586 29.7754H48.8065V28.3545H50.293C50.8905 28.3545 51.3641 28.2088 51.7139 27.9173C52.0782 27.6258 52.2604 27.2032 52.2604 26.6494C52.2604 26.1247 52.0928 25.7021 51.7576 25.3815C51.4224 25.0609 50.9561 24.9006 50.3586 24.9006C49.0615 24.9006 48.3693 25.5637 48.2818 26.8898H46.5986C46.6569 25.7531 47.0067 24.8714 47.6479 24.2448C48.2891 23.6181 49.1854 23.3048 50.3367 23.3048C51.386 23.3048 52.2458 23.6108 52.9162 24.2229C53.6012 24.835 53.9436 25.6001 53.9436 26.5182C53.9436 27.6695 53.4481 28.4856 52.4571 28.9666ZM61.772 23.5015H63.499V35H61.772V29.8847H57.9902V35H56.2851V23.5015H57.9902V28.267H61.772V23.5015ZM72.136 31.4368H73.8411C73.7536 32.6464 73.3529 33.5864 72.6388 34.2568C71.9392 34.9126 70.9774 35.2405 69.7532 35.2405C68.5728 35.2405 67.6401 34.8688 66.9551 34.1256C66.2701 33.3823 65.9277 32.3476 65.9277 31.0214V27.4145C65.9277 26.0883 66.2701 25.0609 66.9551 24.3322C67.6546 23.589 68.5946 23.2173 69.7751 23.2173C70.9847 23.2173 71.9392 23.589 72.6388 24.3322C73.3383 25.0609 73.6881 26.0883 73.6881 27.4145V29.9721H67.6765V31.0214C67.6765 32.712 68.3833 33.5572 69.7969 33.5572C70.5256 33.5572 71.0721 33.3896 71.4364 33.0544C71.8008 32.7192 72.034 32.18 72.136 31.4368ZM69.7969 24.8568C68.3833 24.8568 67.6765 25.7021 67.6765 27.3926V28.5512H71.983V27.3926C71.983 25.7021 71.2543 24.8568 69.7969 24.8568ZM79.6154 35.2405C78.4495 35.2405 77.5241 34.8761 76.8392 34.1475C76.1542 33.4042 75.8117 32.3768 75.8117 31.0652V27.3708C75.8117 26.0592 76.1542 25.039 76.8392 24.3103C77.5241 23.5817 78.4495 23.2173 79.6154 23.2173C80.8105 23.2173 81.7432 23.5817 82.4135 24.3103C83.0985 25.0244 83.4628 26.0446 83.5065 27.3708H81.7577C81.714 25.7094 80.9999 24.8787 79.6154 24.8787C78.2455 24.8787 77.5606 25.7094 77.5606 27.3708V31.0652C77.5606 32.7265 78.2455 33.5572 79.6154 33.5572C81.0145 33.5572 81.7432 32.7265 81.8014 31.0652H83.5284C83.4993 32.3913 83.1349 33.4188 82.4354 34.1475C81.7504 34.8761 80.8105 35.2405 79.6154 35.2405ZM93.7207 23.2173C94.8866 23.2173 95.812 23.5817 96.497 24.3103C97.1819 25.039 97.5244 26.0592 97.5244 27.3708V31.0652C97.5244 32.3768 97.1819 33.4042 96.497 34.1475C95.812 34.8761 94.8866 35.2405 93.7207 35.2405C92.5257 35.2405 91.5784 34.8834 90.8789 34.1693C90.194 33.4406 89.8369 32.4278 89.8078 31.1307H91.5347C91.593 32.7484 92.3217 33.5572 93.7207 33.5572C95.0907 33.5572 95.7756 32.7265 95.7756 31.0652V29.8628H92.0812V28.5075H95.7756V27.3708C95.7756 25.7094 95.0907 24.8787 93.7207 24.8787C92.3363 24.8787 91.6222 25.6948 91.5784 27.3271H89.8296C89.8733 26.0154 90.2304 25.0026 90.9008 24.2885C91.5857 23.5744 92.5257 23.2173 93.7207 23.2173ZM106.019 35L102.477 29.7973L101.647 30.7373V35H99.9415V23.5015H101.647V28.5731C101.778 28.3982 102.018 28.0703 102.368 27.5894C102.718 27.0939 102.987 26.715 103.177 26.4526L105.385 23.5015H107.505L103.592 28.4419L108.052 35H106.019ZM112.406 35.2405C111.24 35.2405 110.314 34.8761 109.63 34.1475C108.945 33.4042 108.602 32.3768 108.602 31.0652V27.3708C108.602 26.0592 108.945 25.039 109.63 24.3103C110.314 23.5817 111.24 23.2173 112.406 23.2173C113.601 23.2173 114.534 23.5817 115.204 24.3103C115.889 25.0244 116.253 26.0446 116.297 27.3708H114.548C114.504 25.7094 113.79 24.8787 112.406 24.8787C111.036 24.8787 110.351 25.7094 110.351 27.3708V31.0652C110.351 32.7265 111.036 33.5572 112.406 33.5572C113.805 33.5572 114.534 32.7265 114.592 31.0652H116.319C116.29 32.3913 115.925 33.4188 115.226 34.1475C114.541 34.8761 113.601 35.2405 112.406 35.2405ZM125.6 23.5015V35H123.873V25.0973H120.091V35H118.386V23.5015H125.6ZM134.237 31.4368H135.942C135.855 32.6464 135.454 33.5864 134.74 34.2568C134.04 34.9126 133.078 35.2405 131.854 35.2405C130.674 35.2405 129.741 34.8688 129.056 34.1256C128.371 33.3823 128.029 32.3476 128.029 31.0214V27.4145C128.029 26.0883 128.371 25.0609 129.056 24.3322C129.756 23.589 130.696 23.2173 131.876 23.2173C133.086 23.2173 134.04 23.589 134.74 24.3322C135.439 25.0609 135.789 26.0883 135.789 27.4145V29.9721H129.778V31.0214C129.778 32.712 130.484 33.5572 131.898 33.5572C132.627 33.5572 133.173 33.3896 133.537 33.0544C133.902 32.7192 134.135 32.18 134.237 31.4368ZM131.898 24.8568C130.484 24.8568 129.778 25.7021 129.778 27.3926V28.5512H134.084V27.3926C134.084 25.7021 133.355 24.8568 131.898 24.8568ZM142.307 23.2392C143.4 23.2392 144.274 23.6327 144.93 24.4196C145.6 25.192 145.935 26.2778 145.935 27.6768V30.8903C145.935 32.2893 145.608 33.3678 144.952 34.1256C144.311 34.8834 143.429 35.2623 142.307 35.2623C141.33 35.2623 140.521 34.898 139.88 34.1693V38.9348H138.197V23.4797H139.487L139.662 24.5508C140.317 23.6764 141.199 23.2392 142.307 23.2392ZM144.187 30.8903V27.6768C144.187 25.7823 143.458 24.835 142.001 24.835C141.374 24.835 140.864 25.0754 140.47 25.5564C140.077 26.0373 139.88 26.7295 139.88 27.6331V30.8903C139.88 31.721 140.07 32.3913 140.449 32.9014C140.827 33.3969 141.345 33.6447 142.001 33.6447C143.458 33.6447 144.187 32.7265 144.187 30.8903ZM153.752 23.5015V25.0973H151.02V35H149.314V25.0973H146.582V23.5015H153.752Z" fill="#333333"/>
<path d="M29.1101 39.7537C27.9202 39.7537 27.2176 40.4657 27.1614 41.768H28.0982C28.1544 40.9998 28.4917 40.6531 29.1194 40.6531C29.6722 40.6531 30.0376 41.0185 30.0376 41.8055V42.6955H28.3606V43.5106H30.0376V44.5036C30.0376 45.2812 29.6722 45.6466 29.1007 45.6466C28.4636 45.6466 28.1263 45.2906 28.0608 44.5411H27.1239C27.1895 45.834 27.8921 46.546 29.1007 46.546C30.253 46.546 31.0025 45.8246 31.0025 44.5036V41.8055C31.0025 40.4751 30.2624 39.7537 29.1101 39.7537ZM34.5831 46.4336H35.623L33.8336 43.6043L35.3888 41.4963H34.3114L33.4964 42.6861L32.9155 43.5949V41.4963H32.0161V46.4336H32.9155V44.6723L33.2434 44.3163L34.5831 46.4336ZM37.478 46.5366C38.5273 46.5366 39.1831 45.8808 39.2112 44.7285H38.3024C38.2743 45.3562 37.9932 45.6654 37.4873 45.6654C37.0095 45.6654 36.7285 45.3562 36.7285 44.7285V43.1733C36.7285 42.5456 37.0095 42.2458 37.4873 42.2458C37.9839 42.2458 38.2556 42.5456 38.2743 43.1733H39.1924C39.155 42.0303 38.546 41.3745 37.478 41.3745C36.4474 41.3745 35.8103 42.0303 35.8103 43.1733V44.7285C35.8103 45.8808 36.4474 46.5366 37.478 46.5366ZM43.2071 41.4963H40.0124V46.4336H40.9212V42.3301H42.2984V46.4336H43.2071V41.4963ZM46.7488 44.8878C46.6645 45.4218 46.4302 45.6654 45.8775 45.6654C45.381 45.6654 45.0905 45.3562 45.0905 44.6817V44.3069H47.592V43.2108C47.592 42.0397 46.9268 41.3745 45.8681 41.3745C44.8282 41.3745 44.1818 42.0397 44.1818 43.2108V44.6817C44.1818 45.8621 44.8282 46.5366 45.8588 46.5366C46.9268 46.5366 47.5732 45.9371 47.6575 44.8878H46.7488ZM45.8775 42.2271C46.3928 42.2271 46.6926 42.5269 46.6926 43.2014V43.623H45.0905V43.2014C45.0905 42.5269 45.381 42.2271 45.8775 42.2271ZM50.3848 41.3839C49.9445 41.3839 49.5135 41.6275 49.2699 41.946L49.2043 41.4869H48.5485V48.12H49.4385V46.1525C49.6821 46.4055 50.0288 46.546 50.3848 46.546C51.3404 46.546 51.9587 45.8527 51.9587 44.6535V43.2951C51.9587 42.0865 51.3216 41.3839 50.3848 41.3839ZM51.0312 44.6535C51.0312 45.3749 50.7595 45.6935 50.2349 45.6935C49.7383 45.6935 49.4385 45.3 49.4385 44.6535V43.2857C49.4385 42.5831 49.7664 42.2364 50.2349 42.2364C50.7408 42.2364 51.0312 42.5643 51.0312 43.2951V44.6535ZM55.3366 41.4963H52.1793V42.3489H53.3036V46.4336H54.203V42.3489H55.3366V41.4963ZM58.2544 41.4963V43.4825H56.8772V41.4963H55.9684V46.4336H56.8772V44.3256H58.2544V46.4336H59.1632V41.4963H58.2544ZM61.871 46.546C62.9484 46.546 63.6136 45.8808 63.6136 44.6723V43.2482C63.6136 42.0397 62.9484 41.3745 61.871 41.3745C60.803 41.3745 60.1378 42.0397 60.1378 43.2482V44.6723C60.1378 45.8808 60.803 46.546 61.871 46.546ZM61.871 45.6654C61.3651 45.6654 61.0559 45.3656 61.0559 44.6723V43.2482C61.0559 42.555 61.3651 42.2552 61.871 42.2552C62.3863 42.2552 62.6954 42.555 62.6954 43.2482V44.6723C62.6954 45.3656 62.3863 45.6654 61.871 45.6654ZM68.1643 41.3745C67.1712 41.3745 66.5341 41.9554 66.4873 42.9016H67.396C67.4429 42.4613 67.7427 42.2458 68.1455 42.2458C68.6421 42.2458 68.8575 42.5737 68.8575 43.1546V43.5012H68.1362C67.0494 43.5012 66.3467 44.0165 66.3467 45.0283C66.3467 45.9558 66.9557 46.5554 67.8645 46.5554C68.4078 46.5554 68.7639 46.3024 68.9606 45.9745L69.0262 46.4336H69.7663V43.1546C69.7663 42.0209 69.2229 41.3745 68.1643 41.3745ZM68.8575 44.9627C68.8575 45.4311 68.5484 45.7497 68.0518 45.7497C67.5553 45.7497 67.2649 45.478 67.2649 45.0283C67.2649 44.5411 67.5834 44.2882 68.1362 44.2882H68.8575V44.9627ZM73.14 41.4963V43.4825H71.7628V41.4963H70.854V46.4336H71.7628V44.3256H73.14V46.4336H74.0487V41.4963H73.14ZM76.7004 41.3745C75.7073 41.3745 75.0702 41.9554 75.0234 42.9016H75.9321C75.979 42.4613 76.2788 42.2458 76.6816 42.2458C77.1782 42.2458 77.3936 42.5737 77.3936 43.1546V43.5012H76.6723C75.5855 43.5012 74.8828 44.0165 74.8828 45.0283C74.8828 45.9558 75.4918 46.5554 76.4006 46.5554C76.9439 46.5554 77.3 46.3024 77.4967 45.9745L77.5623 46.4336H78.3024V43.1546C78.3024 42.0209 77.759 41.3745 76.7004 41.3745ZM77.3936 44.9627C77.3936 45.4311 77.0845 45.7497 76.5879 45.7497C76.0914 45.7497 75.801 45.478 75.801 45.0283C75.801 44.5411 76.1195 44.2882 76.6723 44.2882H77.3936V44.9627ZM78.8467 46.4992C79.8211 46.4992 80.2895 45.834 80.4113 44.4568C80.4675 43.8853 80.5237 42.911 80.5331 42.3301H81.6386V46.4336H82.538V41.4963H79.6618C79.6431 42.4519 79.5775 43.5949 79.5213 44.3069C79.4463 45.0939 79.3433 45.6279 78.8467 45.6279V46.4992ZM86.0808 44.8878C85.9964 45.4218 85.7622 45.6654 85.2095 45.6654C84.7129 45.6654 84.4225 45.3562 84.4225 44.6817V44.3069H86.9239V43.2108C86.9239 42.0397 86.2588 41.3745 85.2001 41.3745C84.1602 41.3745 83.5137 42.0397 83.5137 43.2108V44.6817C83.5137 45.8621 84.1602 46.5366 85.1907 46.5366C86.2588 46.5366 86.9052 45.9371 86.9895 44.8878H86.0808ZM85.2095 42.2271C85.7247 42.2271 86.0245 42.5269 86.0245 43.2014V43.623H84.4225V43.2014C84.4225 42.5269 84.7129 42.2271 85.2095 42.2271ZM90.588 41.4963H87.4308V42.3489H88.555V46.4336H89.4544V42.3489H90.588V41.4963ZM91.2199 46.4336H92.1474L93.0936 44.4568C93.2904 44.0352 93.5996 43.1452 93.6464 42.9391L93.6745 42.9484C93.6464 43.445 93.6277 44.0633 93.6277 44.5411V46.4336H94.5083V41.4963H93.5808L92.6252 43.5668C92.4659 43.9696 92.1849 44.7098 92.1099 44.9627L92.0818 44.944C92.1006 44.41 92.1006 43.9696 92.1006 43.5761V41.4963H91.2199V46.4336ZM97.6918 41.4963V43.8572C97.4482 44.0165 97.1577 44.0352 96.9423 44.0352C96.5019 44.0352 96.1834 43.7542 96.1834 42.8922V41.4963H95.3215V42.8922C95.3215 44.2882 95.9773 44.8878 96.8579 44.8878C97.1296 44.8878 97.4201 44.8503 97.6918 44.7098V46.4336H98.5537V41.4963H97.6918ZM102.092 44.8878C102.007 45.4218 101.773 45.6654 101.22 45.6654C100.724 45.6654 100.433 45.3562 100.433 44.6817V44.3069H102.935V43.2108C102.935 42.0397 102.27 41.3745 101.211 41.3745C100.171 41.3745 99.5247 42.0397 99.5247 43.2108V44.6817C99.5247 45.8621 100.171 46.5366 101.202 46.5366C102.27 46.5366 102.916 45.9371 103 44.8878H102.092ZM101.22 42.2271C101.736 42.2271 102.035 42.5269 102.035 43.2014V43.623H100.433V43.2014C100.433 42.5269 100.724 42.2271 101.22 42.2271ZM105.447 46.5366C106.496 46.5366 107.152 45.8808 107.18 44.7285H106.271C106.243 45.3562 105.962 45.6654 105.456 45.6654C104.978 45.6654 104.697 45.3562 104.697 44.7285V43.1733C104.697 42.5456 104.978 42.2458 105.456 42.2458C105.953 42.2458 106.224 42.5456 106.243 43.1733H107.161C107.124 42.0303 106.515 41.3745 105.447 41.3745C104.416 41.3745 103.779 42.0303 103.779 43.1733V44.7285C103.779 45.8808 104.416 46.5366 105.447 46.5366ZM110.548 46.4336H111.588L109.799 43.6043L111.354 41.4963H110.276L109.461 42.6861L108.88 43.5949V41.4963H107.981V46.4336H108.88V44.6723L109.208 44.3163L110.548 46.4336ZM112.116 46.4336H113.044L113.99 44.4568C114.187 44.0352 114.496 43.1452 114.543 42.9391L114.571 42.9484C114.543 43.445 114.524 44.0633 114.524 44.5411V46.4336H115.405V41.4963H114.477L113.522 43.5668C113.362 43.9696 113.081 44.7098 113.006 44.9627L112.978 44.944C112.997 44.41 112.997 43.9696 112.997 43.5761V41.4963H112.116V46.4336ZM118.148 40.7281C118.794 40.7281 119.244 40.3252 119.272 39.6038H118.626C118.607 39.9317 118.429 40.1004 118.139 40.1004C117.858 40.1004 117.68 39.9317 117.661 39.6038H117.014C117.042 40.3158 117.492 40.7281 118.148 40.7281ZM116.49 46.4336H117.417L118.363 44.4568C118.56 44.0352 118.869 43.1452 118.916 42.9391L118.944 42.9484C118.916 43.445 118.897 44.0633 118.897 44.5411V46.4336H119.778V41.4963H118.851L117.895 43.5668C117.736 43.9696 117.455 44.7098 117.38 44.9627L117.352 44.944C117.37 44.41 117.37 43.9696 117.37 43.5761V41.4963H116.49V46.4336ZM125.733 47.5297H126.614V45.5998H126.052V41.4963H125.143V45.5998H123.785V41.4963H122.876V46.4336H125.733V47.5297ZM129.768 44.8878C129.683 45.4218 129.449 45.6654 128.896 45.6654C128.4 45.6654 128.109 45.3562 128.109 44.6817V44.3069H130.611V43.2108C130.611 42.0397 129.946 41.3745 128.887 41.3745C127.847 41.3745 127.201 42.0397 127.201 43.2108V44.6817C127.201 45.8621 127.847 46.5366 128.878 46.5366C129.946 46.5366 130.592 45.9371 130.676 44.8878H129.768ZM128.896 42.2271C129.412 42.2271 129.711 42.5269 129.711 43.2014V43.623H128.109V43.2014C128.109 42.5269 128.4 42.2271 128.896 42.2271ZM133.853 41.4963V43.4825H132.476V41.4963H131.567V46.4336H132.476V44.3256H133.853V46.4336H134.762V41.4963H133.853ZM138.557 41.4963H135.4V42.3489H136.524V46.4336H137.423V42.3489H138.557V41.4963ZM141.025 41.3839C140.585 41.3839 140.154 41.6275 139.91 41.946L139.844 41.4869H139.189V48.12H140.079V46.1525C140.322 46.4055 140.669 46.546 141.025 46.546C141.98 46.546 142.599 45.8527 142.599 44.6535V43.2951C142.599 42.0865 141.962 41.3839 141.025 41.3839ZM141.671 44.6535C141.671 45.3749 141.4 45.6935 140.875 45.6935C140.378 45.6935 140.079 45.3 140.079 44.6535V43.2857C140.079 42.5831 140.407 42.2364 140.875 42.2364C141.381 42.2364 141.671 42.5643 141.671 43.2951V44.6535Z" fill="#333333"/>
<line x1="6.11143" y1="30.0378" x2="18.6315" y2="42.0762" stroke="#E31251" stroke-width="1.56145"/>
<line x1="5.85322" y1="30.1901" x2="16.7034" y2="19.3399" stroke="#E31251" stroke-width="1.56145"/>
</svg>
