<svg width="250" height="70" viewBox="0 0 250 70" fill="none" xmlns="http://www.w3.org/2000/svg">
<rect x="34.6542" y="1.27789" width="47.3786" height="47.3786" rx="1.1894" transform="rotate(44.7858 34.6542 1.27789)" stroke="#E31251" stroke-width="1.80723"/>
<path d="M35.4435 29.0362H32.8628V23.9H39.6941V21.9518H30.7628V39.6627H35.4435C38.6567 39.6627 40.6555 37.7398 40.6555 34.2988C40.6555 31.0349 38.6567 29.0362 35.4435 29.0362ZM35.3676 37.7145H32.8628V30.959H35.3676C37.2652 30.959 38.5302 32.0723 38.5302 34.2988C38.5302 36.5759 37.2652 37.7145 35.3676 37.7145ZM43.0362 39.6627H45.0603L48.4001 32.8566C48.8808 31.8446 49.5133 30.1747 49.6904 29.5928L49.741 29.6181C49.6651 30.8325 49.6398 32.2241 49.6398 33.5398V39.6627H51.5627V26.3542H49.5386L46.1483 33.4386C45.794 34.2482 45.2121 35.7157 44.9844 36.3229L44.9338 36.2723C44.9844 35.0578 44.9844 33.9446 44.9844 32.9325V26.3542H43.0362V39.6627ZM60.6949 32.6795C61.5804 32.2494 62.4154 31.3386 62.4154 29.8458C62.4154 27.7458 60.6949 26.1265 58.2407 26.1265C55.5587 26.1265 54.0407 27.6446 53.9142 30.2759H55.8623C55.9636 28.7072 56.7479 27.9735 58.266 27.9735C59.6828 27.9735 60.4672 28.8084 60.4672 29.9976C60.4672 31.288 59.5563 31.9711 58.1901 31.9711H56.4696V33.6157H58.266C59.9358 33.6157 60.8467 34.4253 60.8467 35.6904C60.8467 37.2084 59.8852 38.0434 58.2913 38.0434C56.5961 38.0434 55.6852 37.1578 55.584 35.8422H53.6358C53.737 38.2458 55.4575 39.941 58.2913 39.941C60.9732 39.941 62.8202 38.2964 62.8202 35.7916C62.8202 34.2735 61.8334 33.1349 60.6949 32.6795ZM71.476 26.3542V31.8699H67.0989V26.3542H65.1254V39.6627H67.0989V33.7422H71.476V39.6627H73.4748V26.3542H71.476ZM83.4713 35.5386C83.2436 37.2337 82.4593 37.9928 80.7641 37.9928C79.2207 37.9928 78.3099 37.0819 78.3099 35.0578V33.8434H85.2677V30.8831C85.2677 27.7964 83.4966 26.0253 80.7388 26.0253C78.0315 26.0253 76.2858 27.7964 76.2858 30.8831V35.0578C76.2858 38.1699 78.0062 39.941 80.7135 39.941C83.5472 39.941 85.2424 38.347 85.4448 35.5386H83.4713ZM80.7641 27.9229C82.358 27.9229 83.2942 28.859 83.2942 30.8578V32.1988H78.3099V30.8578C78.3099 28.859 79.2207 27.9229 80.7641 27.9229ZM92.1281 39.941C94.8606 39.941 96.5811 38.1952 96.657 35.1084H94.6582C94.5823 37.0819 93.6967 37.9928 92.1281 37.9928C90.6353 37.9928 89.7498 37.0819 89.7498 35.1084V30.8325C89.7498 28.8843 90.6353 27.9482 92.1281 27.9482C93.6714 27.9482 94.557 28.8843 94.6076 30.8325H96.6317C96.5305 27.7711 94.8859 26.0253 92.1281 26.0253C89.4461 26.0253 87.7257 27.7711 87.7257 30.8325V35.1084C87.7257 38.1952 89.4461 39.941 92.1281 39.941ZM98.5437 34.0458H104.692V32.2494H98.5437V34.0458ZM111.122 26.0253C108.364 26.0253 106.72 27.7458 106.619 30.7819H108.643C108.693 28.859 109.579 27.9482 111.122 27.9482C112.615 27.9482 113.5 28.8843 113.5 30.8325V32.1482H109.225V33.7169H113.5V35.1084C113.5 37.0819 112.615 37.9928 111.122 37.9928C109.553 37.9928 108.668 37.0819 108.592 35.1843H106.593C106.669 38.2205 108.39 39.941 111.122 39.941C113.804 39.941 115.525 38.1952 115.525 35.1084V30.8325C115.525 27.7711 113.804 26.0253 111.122 26.0253ZM125.356 39.6627H127.709L122.547 32.0723L127.076 26.3542H124.622L122.067 29.7699C121.485 30.5542 120.903 31.3892 120.296 32.2241V26.3542H118.322V39.6627H120.296V34.7289L121.257 33.641L125.356 39.6627ZM132.748 39.941C135.481 39.941 137.201 38.1952 137.277 35.1084H135.278C135.203 37.0819 134.317 37.9928 132.748 37.9928C131.256 37.9928 130.37 37.0819 130.37 35.1084V30.8325C130.37 28.8843 131.256 27.9482 132.748 27.9482C134.292 27.9482 135.177 28.8843 135.228 30.8325H137.252C137.151 27.7711 135.506 26.0253 132.748 26.0253C130.066 26.0253 128.346 27.7711 128.346 30.8325V35.1084C128.346 38.1952 130.066 39.941 132.748 39.941ZM148.019 26.3542H139.67V39.6627H141.644V28.2012H146.021V39.6627H148.019V26.3542ZM158.016 35.5386C157.788 37.2337 157.004 37.9928 155.309 37.9928C153.765 37.9928 152.855 37.0819 152.855 35.0578V33.8434H159.812V30.8831C159.812 27.7964 158.041 26.0253 155.283 26.0253C152.576 26.0253 150.83 27.7964 150.83 30.8831V35.0578C150.83 38.1699 152.551 39.941 155.258 39.941C158.092 39.941 159.787 38.347 159.989 35.5386H158.016ZM155.309 27.9229C156.903 27.9229 157.839 28.859 157.839 30.8578V32.1988H152.855V30.8578C152.855 28.859 153.765 27.9229 155.309 27.9229ZM167.356 26.0506C166.116 26.0506 164.952 26.6831 164.294 27.5687L164.092 26.3289H162.599V44.2169H164.547V38.7012C165.256 39.5109 166.293 39.9663 167.356 39.9663C169.937 39.9663 171.556 38.1699 171.556 34.906V31.1868C171.556 27.8723 169.835 26.0506 167.356 26.0506ZM169.532 34.906C169.532 37.1325 168.672 38.094 167.002 38.094C165.484 38.094 164.547 36.8289 164.547 34.906V31.1362C164.547 28.9602 165.61 27.8976 167.002 27.8976C168.596 27.8976 169.532 28.8843 169.532 31.1868V34.906ZM180.603 26.3542H172.304V28.2012H175.467V39.6627H177.44V28.2012H180.603V26.3542Z" fill="white"/>
<path d="M34.659 54.1687H35.7976L33.8892 46.5783H32.7072L30.7988 54.1687H31.9482L32.2952 52.6398H34.3012L34.659 54.1687ZM32.5337 51.6205L33 49.5819C33.1193 49.0831 33.2277 48.3566 33.2819 47.9554H33.3145C33.3687 48.3566 33.488 49.0831 33.5964 49.5819L34.0735 51.6205H32.5337ZM39.4799 48.4434H36.5088V54.1687H37.5714V49.4518H39.4799V48.4434ZM42.9289 52.3795C42.8313 52.9976 42.5602 53.2795 41.9205 53.2795C41.3458 53.2795 41.0096 52.9217 41.0096 52.141V51.7072H43.9048V50.4385C43.9048 49.0831 43.1349 48.3132 41.9096 48.3132C40.706 48.3132 39.9578 49.0831 39.9578 50.4385V52.141C39.9578 53.5072 40.706 54.2879 41.8988 54.2879C43.1349 54.2879 43.8831 53.594 43.9807 52.3795H42.9289ZM41.9205 49.3C42.5168 49.3 42.8638 49.647 42.8638 50.4277V50.9157H41.0096V50.4277C41.0096 49.647 41.3458 49.3 41.9205 49.3ZM47.6577 48.4542V50.753H46.0637V48.4542H45.0119V54.1687H46.0637V51.7289H47.6577V54.1687H48.7095V48.4542H47.6577ZM53.1014 48.4542H49.4472V49.441H50.7484V54.1687H51.7894V49.441H53.1014V48.4542ZM55.4633 54.2879C56.6778 54.2879 57.4368 53.5289 57.4694 52.1952H56.4175C56.385 52.9217 56.0597 53.2795 55.4742 53.2795C54.9212 53.2795 54.5959 52.9217 54.5959 52.1952V50.3952C54.5959 49.6687 54.9212 49.3217 55.4742 49.3217C56.0489 49.3217 56.3633 49.6687 56.385 50.3952H57.4477C57.4043 49.0723 56.6995 48.3132 55.4633 48.3132C54.2706 48.3132 53.5332 49.0723 53.5332 50.3952V52.1952C53.5332 53.5289 54.2706 54.2879 55.4633 54.2879ZM61.5305 48.4542H57.8762V49.441H59.1774V54.1687H60.2184V49.441H61.5305V48.4542ZM65.1353 51.1325C65.5365 50.8723 65.7642 50.4494 65.7642 50.0373C65.7642 49.0506 65.1353 48.4542 63.975 48.4542H62.2618V54.1687H64.0618C65.3955 54.1687 66.057 53.5398 66.057 52.5096C66.057 51.9458 65.775 51.3819 65.1353 51.1325ZM63.2811 49.3325H63.91C64.4521 49.3325 64.7341 49.6145 64.7341 50.059C64.7341 50.5361 64.4521 50.7964 63.9208 50.7964H63.2811V49.3325ZM64.1052 53.2795H63.2811V51.6855H64.1052C64.7232 51.6855 65.016 51.9566 65.016 52.4771C65.016 52.9976 64.7232 53.2795 64.1052 53.2795ZM68.797 54.2988C70.0439 54.2988 70.8138 53.5289 70.8138 52.1301V50.4819C70.8138 49.0831 70.0439 48.3132 68.797 48.3132C67.5608 48.3132 66.7909 49.0831 66.7909 50.4819V52.1301C66.7909 53.5289 67.5608 54.2988 68.797 54.2988ZM68.797 53.2795C68.2114 53.2795 67.8536 52.9325 67.8536 52.1301V50.4819C67.8536 49.6795 68.2114 49.3325 68.797 49.3325C69.3933 49.3325 69.7512 49.6795 69.7512 50.4819V52.1301C69.7512 52.9325 69.3933 53.2795 68.797 53.2795ZM77.9676 48.4542H74.27V54.1687H75.3218V49.4193H76.9158V54.1687H77.9676V48.4542ZM78.5968 54.2446C79.7245 54.2446 80.2667 53.4747 80.4077 51.8807C80.4727 51.2193 80.5378 50.0916 80.5486 49.4193H81.8281V54.1687H82.8691V48.4542H79.5402C79.5185 49.5602 79.4426 50.8831 79.3775 51.7072C79.2908 52.6181 79.1715 53.2361 78.5968 53.2361V54.2446ZM85.9394 48.3132C84.79 48.3132 84.0526 48.9855 83.9984 50.0807H85.0502C85.1045 49.5711 85.4514 49.3217 85.9177 49.3217C86.4924 49.3217 86.7418 49.7012 86.7418 50.3735V50.7747H85.9069C84.649 50.7747 83.8358 51.3711 83.8358 52.5422C83.8358 53.6157 84.5406 54.3096 85.5924 54.3096C86.2213 54.3096 86.6334 54.0169 86.8611 53.6373L86.937 54.1687H87.7936V50.3735C87.7936 49.0614 87.1647 48.3132 85.9394 48.3132ZM86.7418 52.4663C86.7418 53.0084 86.384 53.3771 85.8093 53.3771C85.2346 53.3771 84.8984 53.0626 84.8984 52.5422C84.8984 51.9783 85.2671 51.6855 85.9069 51.6855H86.7418V52.4663ZM91.6983 48.4542V50.753H90.1044V48.4542H89.0525V54.1687H90.1044V51.7289H91.6983V54.1687H92.7501V48.4542H91.6983ZM94.0083 54.1687H95.0818L96.177 51.8807C96.4047 51.3928 96.7625 50.3626 96.8167 50.1241L96.8493 50.1349C96.8167 50.7096 96.7951 51.4253 96.7951 51.9783V54.1687H97.8143V48.4542H96.7408L95.6348 50.8506C95.4505 51.3169 95.1252 52.1735 95.0384 52.4663L95.0059 52.4446C95.0276 51.8265 95.0276 51.3169 95.0276 50.8614V48.4542H94.0083V54.1687ZM101.195 48.3241C100.686 48.3241 100.187 48.606 99.9049 48.9747L99.829 48.4434H99.07V56.1205H100.1V53.8434C100.382 54.1361 100.783 54.2988 101.195 54.2988C102.301 54.2988 103.017 53.4964 103.017 52.1084V50.5361C103.017 49.1373 102.28 48.3241 101.195 48.3241ZM101.943 52.1084C101.943 52.9434 101.629 53.312 101.022 53.312C100.447 53.312 100.1 52.8566 100.1 52.1084V50.5253C100.1 49.712 100.48 49.3108 101.022 49.3108C101.607 49.3108 101.943 49.6904 101.943 50.5361V52.1084ZM106.008 54.2988C107.255 54.2988 108.024 53.5289 108.024 52.1301V50.4819C108.024 49.0831 107.255 48.3132 106.008 48.3132C104.771 48.3132 104.001 49.0831 104.001 50.4819V52.1301C104.001 53.5289 104.771 54.2988 106.008 54.2988ZM106.008 53.2795C105.422 53.2795 105.064 52.9325 105.064 52.1301V50.4819C105.064 49.6795 105.422 49.3325 106.008 49.3325C106.604 49.3325 106.962 49.6795 106.962 50.4819V52.1301C106.962 52.9325 106.604 53.2795 106.008 53.2795ZM112.024 51.1325C112.426 50.8723 112.653 50.4494 112.653 50.0373C112.653 49.0506 112.024 48.4542 110.864 48.4542H109.151V54.1687H110.951C112.285 54.1687 112.946 53.5398 112.946 52.5096C112.946 51.9458 112.664 51.3819 112.024 51.1325ZM110.17 49.3325H110.799C111.341 49.3325 111.623 49.6145 111.623 50.059C111.623 50.5361 111.341 50.7964 110.81 50.7964H110.17V49.3325ZM110.994 53.2795H110.17V51.6855H110.994C111.612 51.6855 111.905 51.9566 111.905 52.4771C111.905 52.9976 111.612 53.2795 110.994 53.2795ZM115.621 48.3132C114.472 48.3132 113.734 48.9855 113.68 50.0807H114.732C114.786 49.5711 115.133 49.3217 115.599 49.3217C116.174 49.3217 116.423 49.7012 116.423 50.3735V50.7747H115.588C114.331 50.7747 113.517 51.3711 113.517 52.5422C113.517 53.6157 114.222 54.3096 115.274 54.3096C115.903 54.3096 116.315 54.0169 116.543 53.6373L116.619 54.1687H117.475V50.3735C117.475 49.0614 116.846 48.3132 115.621 48.3132ZM116.423 52.4663C116.423 53.0084 116.066 53.3771 115.491 53.3771C114.916 53.3771 114.58 53.0626 114.58 52.5422C114.58 51.9783 114.949 51.6855 115.588 51.6855H116.423V52.4663ZM121.38 48.4542V50.753H119.786V48.4542H118.734V54.1687H119.786V51.7289H121.38V54.1687H122.432V48.4542H121.38ZM123.69 54.1687H124.763L125.859 51.8807C126.086 51.3928 126.444 50.3626 126.498 50.1241L126.531 50.1349C126.498 50.7096 126.477 51.4253 126.477 51.9783V54.1687H127.496V48.4542H126.422L125.316 50.8506C125.132 51.3169 124.807 52.1735 124.72 52.4663L124.688 52.4446C124.709 51.8265 124.709 51.3169 124.709 50.8614V48.4542H123.69V54.1687ZM130.324 48.4542C129.185 48.4542 128.405 49.159 128.405 50.3193C128.405 51.2518 128.849 51.8482 129.435 52.0867L128.22 54.1687H129.413L130.443 52.2386H131.061V54.1687H132.08V48.4542H130.324ZM131.061 51.3385H130.346C129.738 51.3385 129.435 50.9916 129.435 50.3518C129.435 49.7554 129.76 49.4084 130.367 49.4084H131.061V51.3385Z" fill="white"/>
<line x1="6.70662" y1="34.7655" x2="21.1974" y2="48.6988" stroke="#E31251" stroke-width="1.80723"/>
<line x1="6.40792" y1="34.9423" x2="18.966" y2="22.3842" stroke="#E31251" stroke-width="1.80723"/>
</svg>
